<svg aria-hidden="true" style="position: absolute; width: 0; height: 0; overflow: hidden;" version="1.1" xmlns="http://www.w3.org/2000/svg" xmlns:xlink="http://www.w3.org/1999/xlink">
<defs>
<symbol id="icon-facbok" viewBox="0 0 33 32">
<title>facbok</title>
<path fill="#96bb7c" style="fill: var(--color1, #96bb7c)" d="M32.696 16.098c0-8.891-7.163-16.098-15.998-16.098-8.839 0.002-16.002 7.207-16.002 16.1 0 8.033 5.851 14.692 13.498 15.9v-11.249h-4.059v-4.651h4.064v-3.55c0-4.034 2.39-6.261 6.043-6.261 1.752 0 3.581 0.314 3.581 0.314v3.96h-2.018c-1.986 0-2.606 1.242-2.606 2.516v3.020h4.435l-0.708 4.651h-3.73v11.249c7.647-1.208 13.498-7.867 13.498-15.9z"></path>
</symbol>
<symbol id="icon-instag" viewBox="0 0 33 32">
<title>instag</title>
<path fill="#96bb7c" style="fill: var(--color1, #96bb7c)" d="M16.727 0c-4.342 0-4.888 0.020-6.594 0.096-1.706 0.080-2.868 0.348-3.886 0.744-1.068 0.402-2.035 1.032-2.834 1.846-0.814 0.799-1.444 1.766-1.846 2.834-0.396 1.016-0.666 2.18-0.744 3.88-0.076 1.71-0.096 2.254-0.096 6.602 0 4.344 0.020 4.888 0.096 6.594 0.080 1.704 0.348 2.866 0.744 3.884 0.41 1.052 0.956 1.944 1.846 2.834 0.888 0.89 1.78 1.438 2.832 1.846 1.020 0.396 2.18 0.666 3.884 0.744 1.708 0.076 2.252 0.096 6.598 0.096s4.888-0.020 6.596-0.096c1.702-0.080 2.868-0.348 3.886-0.744 1.067-0.402 2.034-1.032 2.832-1.846 0.89-0.89 1.436-1.782 1.846-2.834 0.394-1.018 0.664-2.18 0.744-3.884 0.076-1.706 0.096-2.25 0.096-6.596s-0.020-4.89-0.096-6.598c-0.080-1.702-0.35-2.866-0.744-3.882-0.402-1.068-1.032-2.035-1.846-2.834-0.799-0.815-1.766-1.445-2.834-1.846-1.020-0.396-2.184-0.666-3.886-0.744-1.708-0.076-2.25-0.096-6.598-0.096h0.004zM15.293 2.884h1.436c4.272 0 4.778 0.014 6.464 0.092 1.56 0.070 2.408 0.332 2.972 0.55 0.746 0.29 1.28 0.638 1.84 1.198s0.906 1.092 1.196 1.84c0.22 0.562 0.48 1.41 0.55 2.97 0.078 1.686 0.094 2.192 0.094 6.462s-0.016 4.778-0.094 6.464c-0.070 1.56-0.332 2.406-0.55 2.97-0.257 0.695-0.666 1.323-1.198 1.838-0.56 0.56-1.092 0.906-1.84 1.196-0.56 0.22-1.408 0.48-2.97 0.552-1.686 0.076-2.192 0.094-6.464 0.094s-4.78-0.018-6.466-0.094c-1.56-0.072-2.406-0.332-2.97-0.552-0.695-0.256-1.324-0.665-1.84-1.196-0.532-0.516-0.943-1.145-1.2-1.84-0.218-0.562-0.48-1.41-0.55-2.97-0.076-1.686-0.092-2.192-0.092-6.466 0-4.272 0.016-4.776 0.092-6.462 0.072-1.56 0.332-2.408 0.552-2.972 0.29-0.746 0.638-1.28 1.198-1.84s1.092-0.906 1.84-1.196c0.564-0.22 1.41-0.48 2.97-0.552 1.476-0.068 2.048-0.088 5.030-0.090v0.004zM25.269 5.54c-0.252 0-0.502 0.050-0.735 0.146s-0.445 0.238-0.623 0.416c-0.178 0.178-0.32 0.39-0.416 0.623s-0.146 0.483-0.146 0.735c0 0.252 0.050 0.502 0.146 0.735s0.238 0.445 0.416 0.623c0.178 0.178 0.39 0.32 0.623 0.416s0.483 0.146 0.735 0.146c0.509 0 0.998-0.202 1.358-0.562s0.562-0.848 0.562-1.358-0.202-0.998-0.562-1.358c-0.36-0.36-0.848-0.562-1.358-0.562zM16.729 7.784c-1.090-0.017-2.172 0.183-3.184 0.588s-1.933 1.008-2.71 1.773-1.394 1.676-1.815 2.682c-0.421 1.005-0.638 2.084-0.638 3.174s0.217 2.169 0.638 3.174c0.421 1.005 1.038 1.917 1.815 2.682s1.698 1.367 2.71 1.773c1.012 0.405 2.094 0.605 3.184 0.588 2.157-0.034 4.214-0.914 5.728-2.451s2.362-3.608 2.362-5.766-0.848-4.228-2.362-5.765c-1.513-1.537-3.571-2.418-5.728-2.451zM16.729 10.666c1.415 0 2.771 0.562 3.772 1.562s1.562 2.357 1.562 3.772c0 1.415-0.562 2.771-1.562 3.772s-2.357 1.562-3.772 1.562-2.771-0.562-3.772-1.562c-1-1-1.562-2.357-1.562-3.772s0.562-2.771 1.562-3.772c1-1 2.357-1.562 3.772-1.562z"></path>
</symbol>
<symbol id="icon-mail" viewBox="0 0 37 32">
<title>mail</title>
<path fill="#96bb7c" style="fill: var(--color1, #96bb7c)" d="M-1.4 4.14c0.25-1.122 0.863-2.124 1.741-2.841s1.966-1.108 3.088-1.108h29.714c1.122-0 2.211 0.391 3.088 1.108s1.491 1.719 1.74 2.841l-19.686 12.34-19.686-12.34zM-1.524 7.040v18.042l14.369-9.036-14.369-9.006zM15.218 17.536l-16.269 10.227c0.402 0.869 1.036 1.604 1.829 2.117s1.712 0.786 2.65 0.785h29.714c0.938 0 1.857-0.273 2.649-0.787s1.426-1.249 1.828-2.118l-16.268-10.227-3.066 1.922-3.068-1.92zM23.726 16.048l14.369 9.034v-18.042l-14.369 9.008z"></path>
</symbol>
<symbol id="icon-pin" viewBox="0 0 26 32">
<title>pin</title>
<path fill="#96bb7c" style="fill: var(--color1, #96bb7c)" d="M12.8 19.2c3.529 0 6.4-2.87 6.4-6.4s-2.87-6.4-6.4-6.4c-3.53 0-6.4 2.87-6.4 6.4s2.87 6.4 6.4 6.4zM12.8 9.6c1.765 0 3.2 1.435 3.2 3.2s-1.435 3.2-3.2 3.2c-1.765 0-3.2-1.435-3.2-3.2s1.435-3.2 3.2-3.2zM11.872 31.702c0.271 0.193 0.595 0.297 0.928 0.297s0.657-0.104 0.928-0.297c0.486-0.344 11.918-8.598 11.872-18.902 0-7.058-5.742-12.8-12.8-12.8s-12.8 5.742-12.8 12.792c-0.046 10.312 11.385 18.566 11.872 18.91zM12.8 3.2c5.294 0 9.6 4.306 9.6 9.608 0.034 7.101-7.021 13.477-9.6 15.568-2.578-2.093-9.633-8.47-9.6-15.576 0-5.294 4.306-9.6 9.6-9.6zM12.8 19.2c3.529 0 6.4-2.87 6.4-6.4s-2.87-6.4-6.4-6.4c-3.53 0-6.4 2.87-6.4 6.4s2.87 6.4 6.4 6.4zM12.8 9.6c1.765 0 3.2 1.435 3.2 3.2s-1.435 3.2-3.2 3.2c-1.765 0-3.2-1.435-3.2-3.2s1.435-3.2 3.2-3.2zM11.872 31.702c0.271 0.193 0.595 0.297 0.928 0.297s0.657-0.104 0.928-0.297c0.486-0.344 11.918-8.598 11.872-18.902 0-7.058-5.742-12.8-12.8-12.8s-12.8 5.742-12.8 12.792c-0.046 10.312 11.385 18.566 11.872 18.91zM12.8 3.2c5.294 0 9.6 4.306 9.6 9.608 0.034 7.101-7.021 13.477-9.6 15.568-2.578-2.093-9.633-8.47-9.6-15.576 0-5.294 4.306-9.6 9.6-9.6z"></path>
</symbol>
<symbol id="icon-telefon" viewBox="0 0 32 32">
<title>telefon</title>
<path fill="#96bb7c" style="fill: var(--color1, #96bb7c)" d="M24.832 17.185c-0.155-0.155-0.339-0.278-0.541-0.362s-0.42-0.127-0.639-0.127c-0.219 0-0.436 0.043-0.639 0.127s-0.387 0.207-0.541 0.362l-2.661 2.661c-1.234-0.367-3.536-1.202-4.995-2.661s-2.294-3.761-2.661-4.995l2.661-2.661c0.155-0.155 0.278-0.339 0.362-0.541s0.127-0.42 0.127-0.639c0-0.219-0.043-0.436-0.127-0.639s-0.207-0.387-0.362-0.541l-6.678-6.678c-0.155-0.155-0.339-0.278-0.541-0.362s-0.42-0.127-0.639-0.127c-0.219 0-0.436 0.043-0.639 0.127s-0.387 0.207-0.541 0.362l-4.528 4.528c-0.634 0.634-0.992 1.506-0.978 2.396 0.038 2.377 0.668 10.635 7.176 17.143s14.766 7.136 17.145 7.176h0.047c0.882 0 1.715-0.347 2.346-0.978l4.528-4.528c0.155-0.155 0.278-0.339 0.362-0.541s0.127-0.42 0.127-0.639c0-0.219-0.043-0.436-0.127-0.639s-0.207-0.387-0.362-0.541l-6.678-6.68zM24.62 28.391c-2.083-0.035-9.213-0.594-14.814-6.197-5.62-5.62-6.164-12.774-6.197-14.816l3.347-3.347 4.317 4.317-2.159 2.159c-0.196 0.196-0.341 0.438-0.42 0.704s-0.091 0.547-0.034 0.819c0.040 0.192 1.020 4.745 3.792 7.516s7.324 3.752 7.516 3.792c0.271 0.058 0.553 0.047 0.819-0.032s0.508-0.224 0.704-0.421l2.16-2.159 4.317 4.317-3.349 3.347z"></path>
</symbol>
<symbol id="icon-twit" viewBox="0 0 41 32">
<title>twit</title>
<path fill="#96bb7c" style="fill: var(--color1, #96bb7c)" d="M13.175 32c14.76 0 22.834-12.315 22.834-22.975 0-0.345 0-0.694-0.015-1.039 1.572-1.146 2.929-2.564 4.006-4.189-1.468 0.652-3.024 1.082-4.618 1.275 1.678-1.010 2.935-2.599 3.537-4.472-1.577 0.941-3.303 1.601-5.102 1.952-1.209-1.297-2.81-2.156-4.554-2.445s-3.533 0.010-5.091 0.85c-1.558 0.839-2.798 2.173-3.527 3.793s-0.908 3.438-0.507 5.171c-3.191-0.161-6.312-0.996-9.162-2.45s-5.364-3.495-7.38-5.99c-1.023 1.78-1.336 3.885-0.874 5.888s1.664 3.754 3.362 4.898c-1.272-0.044-2.517-0.388-3.632-1.004v0.111c0.002 1.864 0.644 3.671 1.816 5.114s2.803 2.435 4.618 2.807c-0.689 0.191-1.4 0.286-2.114 0.283-0.504 0.002-1.006-0.045-1.501-0.14 0.513 1.605 1.511 3.008 2.856 4.013s2.967 1.561 4.641 1.591c-2.844 2.249-6.357 3.469-9.973 3.463-0.637 0.003-1.274-0.034-1.907-0.111 3.67 2.356 7.933 3.607 12.286 3.606z"></path>
</symbol>
<symbol id="icon-Vector" viewBox="0 0 38 32">
<title>Vector</title>
<path fill="#fff" style="fill: var(--color2, #fff)" d="M0 16c0-0.606 0.253-1.187 0.703-1.616s1.060-0.669 1.697-0.669h27.803l-10.304-9.809c-0.451-0.429-0.704-1.011-0.704-1.618s0.253-1.189 0.704-1.618c0.451-0.429 1.062-0.67 1.699-0.67s1.248 0.241 1.699 0.67l14.398 13.712c0.223 0.212 0.401 0.464 0.522 0.742s0.183 0.575 0.183 0.876-0.062 0.598-0.183 0.876c-0.121 0.278-0.298 0.53-0.522 0.742l-14.398 13.712c-0.451 0.429-1.062 0.67-1.699 0.67s-1.248-0.241-1.699-0.67c-0.451-0.429-0.704-1.011-0.704-1.618s0.253-1.189 0.704-1.618l10.304-9.808h-27.803c-0.636 0-1.247-0.241-1.697-0.669s-0.703-1.010-0.703-1.616z"></path>
</symbol>
</defs>
</svg>
