<svg aria-hidden="true" style="position: absolute; width: 0; height: 0; overflow: hidden;" version="1.1" xmlns="http://www.w3.org/2000/svg" xmlns:xlink="http://www.w3.org/1999/xlink">
<defs>
<symbol id="icon-desktop" viewBox="0 0 33 32">
<title>desktop</title>
<path fill="#353744" style="fill: var(--color1, #353744)" d="M31.296 24h-28v-16c0-1.104 0.896-2 2-2h24c1.104 0 2 0.896 2 2v16z"></path>
<path fill="#808080" style="fill: var(--color2, #808080)" d="M31.296 24h-28v1c0 1.104 0.896 2 2 2h24c1.104 0 2-0.896 2-2v-1z"></path>
<path fill="#55525b" style="fill: var(--color3, #55525b)" d="M29.296 24h-26v-16c0-1.104 0.896-2 2-2h22c1.104 0 2 0.896 2 2v16z"></path>
<path fill="#dbdee3" style="fill: var(--color4, #dbdee3)" d="M29.296 24h-26v1c0 1.104 0.896 2 2 2h22c1.104 0 2-0.896 2-2v-1z"></path>
<path fill="#fbbe18" style="fill: var(--color5, #fbbe18)" d="M26.546 8h-20.5c-0.414 0-0.75 0.336-0.75 0.75v12.5c0 0.414 0.336 0.75 0.75 0.75h20.5c0.414 0 0.75-0.336 0.75-0.75v-12.5c0-0.414-0.336-0.75-0.75-0.75z"></path>
<path fill="#f68820" style="fill: var(--color6, #f68820)" d="M8.296 12h11c0.552 0 1-0.448 1-1s-0.448-1-1-1h-11c-0.552 0-1 0.448-1 1s0.448 1 1 1z"></path>
<path fill="#f68820" style="fill: var(--color6, #f68820)" d="M8.296 16h11c0.552 0 1-0.448 1-1s-0.448-1-1-1h-11c-0.552 0-1 0.448-1 1s0.448 1 1 1z"></path>
<path fill="#f68820" style="fill: var(--color6, #f68820)" d="M8.296 20h11c0.552 0 1-0.448 1-1s-0.448-1-1-1h-11c-0.552 0-1 0.448-1 1s0.448 1 1 1z"></path>
<path fill="#808080" style="fill: var(--color2, #808080)" d="M21.046 29h-2v-2h2v2z"></path>
<path fill="#b3b4b6" style="fill: var(--color7, #b3b4b6)" d="M14.296 27h4.75v2h-4.75v-2z"></path>
<path fill="#dbdee3" style="fill: var(--color4, #dbdee3)" d="M23.046 29h-12.5c-1.105 0-2 0.896-2 2h16.5c0-1.104-0.895-2-2-2z"></path>
<path fill="#808080" style="fill: var(--color2, #808080)" d="M23.046 29h-2c-1.104 0-2 0.896-2 2h6c0-1.104-0.895-2-2-2z"></path>
<path fill="#5c76b2" style="fill: var(--color8, #5c76b2)" d="M8.796 1h-1.5c-3.313 0-6 2.687-6 6s2.687 6 6 6h1.5c3.313 0 6-2.687 6-6s-2.687-6-6-6z"></path>
<path fill="#6fa4d8" style="fill: var(--color9, #6fa4d8)" d="M7.296 13c3.314 0 6-2.686 6-6s-2.686-6-6-6c-3.314 0-6 2.686-6 6s2.686 6 6 6z"></path>
<path fill="#55525b" style="fill: var(--color3, #55525b)" d="M7.296 12c2.761 0 5-2.239 5-5s-2.239-5-5-5c-2.761 0-5 2.239-5 5s2.239 5 5 5z"></path>
<path fill="#6fa4d8" style="fill: var(--color9, #6fa4d8)" d="M7.296 7.25c-0.138 0-0.25-0.112-0.25-0.25v-4c0-0.138 0.112-0.25 0.25-0.25s0.25 0.112 0.25 0.25v4c0 0.138-0.112 0.25-0.25 0.25z"></path>
<path fill="#6fa4d8" style="fill: var(--color9, #6fa4d8)" d="M5.175 9.371c-0.064 0-0.128-0.025-0.177-0.073-0.098-0.097-0.098-0.256 0-0.353l2.121-2.122c0.098-0.097 0.256-0.097 0.354 0s0.097 0.256 0 0.354l-2.121 2.121c-0.048 0.048-0.112 0.073-0.176 0.073z"></path>
<path fill="#f68820" style="fill: var(--color6, #f68820)" d="M7.296 8c0.552 0 1-0.448 1-1s-0.448-1-1-1c-0.552 0-1 0.448-1 1s0.448 1 1 1z"></path>
<path fill="#dbdee3" style="fill: var(--color4, #dbdee3)" d="M7.296 7.5c0.276 0 0.5-0.224 0.5-0.5s-0.224-0.5-0.5-0.5c-0.276 0-0.5 0.224-0.5 0.5s0.224 0.5 0.5 0.5z"></path>
<path fill="#f68820" style="fill: var(--color6, #f68820)" d="M3.796 7.25h-0.5c-0.138 0-0.25-0.112-0.25-0.25s0.112-0.25 0.25-0.25h0.5c0.138 0 0.25 0.112 0.25 0.25s-0.112 0.25-0.25 0.25z"></path>
<path fill="#f68820" style="fill: var(--color6, #f68820)" d="M7.296 11.25c-0.138 0-0.25-0.112-0.25-0.25v-0.5c0-0.138 0.112-0.25 0.25-0.25s0.25 0.112 0.25 0.25v0.5c0 0.138-0.112 0.25-0.25 0.25z"></path>
<path fill="#f68820" style="fill: var(--color6, #f68820)" d="M11.296 7.25h-0.5c-0.138 0-0.25-0.112-0.25-0.25s0.112-0.25 0.25-0.25h0.5c0.138 0 0.25 0.112 0.25 0.25s-0.112 0.25-0.25 0.25z"></path>
<path fill="#f68820" style="fill: var(--color6, #f68820)" d="M23.796 20c-0.552 0-1-0.448-1-1s0.447-1 1-1c0.553 0 1 0.448 1 1s-0.448 1-1 1z"></path>
<path fill="#5c76b2" style="fill: var(--color8, #5c76b2)" d="M23.421 10.375l0.375 0.375 1.125-1.125c0.207-0.207 0.543-0.207 0.75 0s0.207 0.543 0 0.75l-1.5 1.5c-0.207 0.207-0.543 0.207-0.75 0l-0.75-0.75c-0.207-0.207-0.207-0.543 0-0.75s0.543-0.207 0.75 0z"></path>
<path fill="#5c76b2" style="fill: var(--color8, #5c76b2)" d="M23.421 14.375l0.375 0.375 1.125-1.125c0.207-0.207 0.543-0.207 0.75 0s0.207 0.543 0 0.75l-1.5 1.5c-0.207 0.207-0.543 0.207-0.75 0l-0.75-0.75c-0.207-0.207-0.207-0.543 0-0.75s0.543-0.207 0.75 0z"></path>
</symbol>
<symbol id="icon-telescope" viewBox="0 0 33 32">
<title>telescope</title>
<path fill="#f68820" style="fill: var(--color6, #f68820)" d="M18.312 10.868c1.105 0 2-0.895 2-2s-0.895-2-2-2c-1.105 0-2 0.895-2 2s0.895 2 2 2z"></path>
<path fill="#55525b" style="fill: var(--color3, #55525b)" d="M29.113 29.268l-8.8-11.733v-8.417c0-0.552-0.448-1-1-1s-1 0.448-1 1v8.417l-8.8 11.733c-0.332 0.442-0.242 1.069 0.2 1.4 0.18 0.136 0.39 0.2 0.599 0.2 0.304 0 0.604-0.138 0.801-0.4l7.2-9.6v9c0 0.552 0.448 1 1 1s1-0.448 1-1v-9l7.2 9.6c0.197 0.262 0.497 0.4 0.801 0.4 0.209 0 0.419-0.065 0.6-0.2 0.44-0.331 0.53-0.958 0.199-1.4z"></path>
<path fill="#5c76b2" style="fill: var(--color8, #5c76b2)" d="M16.311 23.868c-0.417 0-0.839-0.131-1.199-0.4-0.884-0.663-1.062-1.916-0.4-2.8l3-4c0.664-0.883 1.916-1.062 2.8-0.4 0.884 0.663 1.063 1.916 0.4 2.8l-3 4c-0.393 0.524-0.993 0.8-1.601 0.8z"></path>
<path fill="#5c76b2" style="fill: var(--color8, #5c76b2)" d="M22.314 23.869c-0.608 0-1.208-0.276-1.601-0.8l-3-4c-0.663-0.884-0.483-2.137 0.4-2.801 0.883-0.662 2.136-0.485 2.8 0.4l3 4c0.663 0.884 0.483 2.137-0.4 2.801-0.36 0.27-0.781 0.4-1.199 0.4z"></path>
<path fill="#f68820" style="fill: var(--color6, #f68820)" d="M28.651 5.998l-1.969-0.348c-1.632-0.287-3.188 0.802-3.476 2.434s0.802 3.188 2.433 3.476l1.97 0.348c1.631 0.288 3.188-0.802 3.476-2.433s-0.802-3.188-2.434-3.476z"></path>
<path fill="#fbbe18" style="fill: var(--color5, #fbbe18)" d="M26.16 11.604c1.657 0 3-1.343 3-3s-1.343-3-3-3c-1.657 0-3 1.343-3 3s1.343 3 3 3z"></path>
<path fill="#6fa4d8" style="fill: var(--color9, #6fa4d8)" d="M25.813 10.575l-6.893-1.215 0.694-3.939 6.893 1.215c1.088 0.192 1.814 1.229 1.623 2.317s-1.229 1.813-2.317 1.622z"></path>
<path fill="#5c76b2" style="fill: var(--color8, #5c76b2)" d="M18.919 9.358l6.893 1.215c1.088 0.192 2.125-0.534 2.317-1.622l-8.863-1.563-0.348 1.969z"></path>
<path fill="#6fa4d8" style="fill: var(--color9, #6fa4d8)" d="M16.775 9.996l-6.893-1.216 1.042-5.909 6.893 1.216c1.632 0.287 2.721 1.844 2.434 3.476s-1.843 2.721-3.476 2.433z"></path>
<path fill="#5c76b2" style="fill: var(--color8, #5c76b2)" d="M9.882 8.781l6.894 1.216c1.631 0.288 3.188-0.802 3.476-2.433l-9.848-1.736-0.521 2.954z"></path>
<path fill="#f68820" style="fill: var(--color6, #f68820)" d="M9.302 0.555l-1.969-0.347c-2.72-0.479-5.313 1.337-5.793 4.056s1.337 5.312 4.056 5.792l1.97 0.348c2.719 0.48 5.313-1.336 5.792-4.056s-1.336-5.313-4.056-5.792z"></path>
<path fill="#fbbe18" style="fill: var(--color5, #fbbe18)" d="M6.464 10.132c2.761 0 5-2.239 5-5s-2.239-5-5-5c-2.761 0-5 2.239-5 5s2.239 5 5 5z"></path>
<path fill="#55525b" style="fill: var(--color3, #55525b)" d="M6.464 9.132c2.209 0 4-1.791 4-4s-1.791-4-4-4c-2.209 0-4 1.791-4 4s1.791 4 4 4z"></path>
<path fill="#b3b4b6" style="fill: var(--color7, #b3b4b6)" d="M5.963 1.162c-1.306 0.165-2.456 0.97-3.057 2.14 0.188 0.74 0.788 1.34 1.589 1.482 1.088 0.192 2.125-0.534 2.317-1.623 0.141-0.8-0.218-1.571-0.849-2z"></path>
<path fill="#fbbe18" style="fill: var(--color5, #fbbe18)" d="M20.312 10.868c1.105 0 2-0.895 2-2s-0.895-2-2-2c-1.105 0-2 0.895-2 2s0.895 2 2 2z"></path>
<path fill="#55525b" style="fill: var(--color3, #55525b)" d="M20.312 9.868c0.552 0 1-0.448 1-1s-0.448-1-1-1c-0.552 0-1 0.448-1 1s0.448 1 1 1z"></path>
<path fill="#f68820" style="fill: var(--color6, #f68820)" d="M10.312 31.868c1.105 0 2-0.895 2-2s-0.895-2-2-2c-1.105 0-2 0.895-2 2s0.895 2 2 2z"></path>
<path fill="#f68820" style="fill: var(--color6, #f68820)" d="M28.312 31.868c1.105 0 2-0.895 2-2s-0.895-2-2-2c-1.105 0-2 0.895-2 2s0.895 2 2 2z"></path>
<path fill="#f68820" style="fill: var(--color6, #f68820)" d="M19.312 31.868c1.105 0 2-0.895 2-2s-0.895-2-2-2c-1.105 0-2 0.895-2 2s0.895 2 2 2z"></path>
<path fill="#f68820" style="fill: var(--color6, #f68820)" d="M19.312 23.868c-1.104 0-2-0.895-2-2v-4c0-1.104 0.896-2 2-2s2 0.896 2 2v4c0 1.105-0.895 2-2 2z"></path>
<path fill="#6fa4d8" style="fill: var(--color9, #6fa4d8)" d="M19.312 23.868c-1.104 0-2-0.895-2-2v-4c0-1.104 0.896-2 2-2s2 0.896 2 2v4c0 1.105-0.895 2-2 2z"></path>
</symbol>
<symbol id="icon-flask" viewBox="0 0 33 32">
<title>flask</title>
<path fill="#6fa4d8" style="fill: var(--color9, #6fa4d8)" d="M19.297 19.5v-5h-6v5l-7.2 9.6c-0.742 0.989-0.036 2.4 1.2 2.4h18c1.236 0 1.941-1.411 1.2-2.4l-7.2-9.6z"></path>
<path fill="#5c76b2" style="fill: var(--color8, #5c76b2)" d="M26.496 29.1l-7.2-9.6v-5h-6v1.25h2.25c0.414 0 0.75 0.336 0.75 0.75v3l4 12h5c1.236 0 1.942-1.411 1.2-2.4z"></path>
<path fill="#6fa4d8" style="fill: var(--color9, #6fa4d8)" d="M19.296 14.5h-6c-0.552 0-1-0.448-1-1s0.448-1 1-1h6c0.552 0 1 0.447 1 1s-0.448 1-1 1z"></path>
<path fill="#5c76b2" style="fill: var(--color8, #5c76b2)" d="M19.296 12.5h-3c0.552 0 1 0.447 1 1s-0.448 1-1 1h3c0.552 0 1-0.448 1-1s-0.448-1-1-1z"></path>
<path fill="#f68820" style="fill: var(--color6, #f68820)" d="M24.296 29.5h-16l3.751-5.001c1.062-1.417 3.188-1.417 4.25-0.001l0.001 0c1.063 1.416 3.186 1.416 4.249 0.001l3.75 5z"></path>
<path fill="#fbbe18" style="fill: var(--color5, #fbbe18)" d="M20.546 24.5l-0.001-0.001c-1.062-1.417-3.188-1.417-4.25-0.001l-0.001 0c-1.063 1.416-3.186 1.416-4.249 0.001l-3.75 5h16l-3.75-5z"></path>
<path fill="#f68820" style="fill: var(--color6, #f68820)" d="M20.547 24.5l-0.001-0.001c-0.705-0.941-1.878-1.253-2.898-0.945l1.982 5.945h4.666l-3.75-5z"></path>
<path fill="#f68820" style="fill: var(--color6, #f68820)" d="M14.546 27.75c0.414 0 0.75-0.336 0.75-0.75s-0.336-0.75-0.75-0.75c-0.414 0-0.75 0.336-0.75 0.75s0.336 0.75 0.75 0.75z"></path>
<path fill="#f68820" style="fill: var(--color6, #f68820)" d="M12.796 28.75c0.276 0 0.5-0.224 0.5-0.5s-0.224-0.5-0.5-0.5c-0.276 0-0.5 0.224-0.5 0.5s0.224 0.5 0.5 0.5z"></path>
<path fill="#f68820" style="fill: var(--color6, #f68820)" d="M13.796 9.5c1.381 0 2.5-1.119 2.5-2.5s-1.119-2.5-2.5-2.5c-1.381 0-2.5 1.119-2.5 2.5s1.119 2.5 2.5 2.5z"></path>
<path fill="#fbbe18" style="fill: var(--color5, #fbbe18)" d="M13.046 7c0.414 0 0.75-0.336 0.75-0.75s-0.336-0.75-0.75-0.75c-0.414 0-0.75 0.336-0.75 0.75s0.336 0.75 0.75 0.75z"></path>
<path fill="#f68820" style="fill: var(--color6, #f68820)" d="M18.796 11.5c0.828 0 1.5-0.672 1.5-1.5s-0.672-1.5-1.5-1.5c-0.828 0-1.5 0.672-1.5 1.5s0.672 1.5 1.5 1.5z"></path>
<path fill="#fbbe18" style="fill: var(--color5, #fbbe18)" d="M18.296 10c0.276 0 0.5-0.224 0.5-0.5s-0.224-0.5-0.5-0.5-0.5 0.224-0.5 0.5c0 0.276 0.224 0.5 0.5 0.5z"></path>
<path fill="#f68820" style="fill: var(--color6, #f68820)" d="M20.921 1.125c0 0.345-0.625 1.375-0.625 1.375s-0.625-1.030-0.625-1.375c0-0.345 0.28-0.625 0.625-0.625s0.625 0.28 0.625 0.625z"></path>
<path fill="#f68820" style="fill: var(--color6, #f68820)" d="M18.552 1.771c0.299 0.173 0.878 1.229 0.878 1.229s-1.204 0.026-1.503-0.146c-0.299-0.173-0.401-0.555-0.229-0.854s0.555-0.401 0.854-0.229z"></path>
<path fill="#f68820" style="fill: var(--color6, #f68820)" d="M17.927 4.146c0.299-0.172 1.504-0.146 1.504-0.146s-0.579 1.056-0.879 1.229c-0.299 0.173-0.681 0.070-0.854-0.229s-0.070-0.681 0.229-0.854z"></path>
<path fill="#f68820" style="fill: var(--color6, #f68820)" d="M19.671 5.875c0-0.345 0.625-1.375 0.625-1.375s0.625 1.030 0.625 1.375c0 0.345-0.28 0.625-0.625 0.625s-0.625-0.28-0.625-0.625z"></path>
<path fill="#f68820" style="fill: var(--color6, #f68820)" d="M22.041 5.229c-0.299-0.173-0.879-1.229-0.879-1.229s1.204-0.026 1.504 0.146c0.299 0.173 0.401 0.555 0.229 0.854s-0.555 0.402-0.854 0.229z"></path>
<path fill="#f68820" style="fill: var(--color6, #f68820)" d="M22.666 2.854c-0.299 0.172-1.504 0.146-1.504 0.146s0.579-1.056 0.879-1.229c0.299-0.173 0.681-0.070 0.854 0.229s0.070 0.681-0.229 0.854z"></path>
</symbol>
<symbol id="icon-owl" viewBox="0 0 33 32">
<title>owl</title>
<path fill="#6fa4d8" style="fill: var(--color9, #6fa4d8)" d="M12.641 22.5c-1.104 0-2-0.896-2-2v-2c0-1.105 0.896-2 2-2v6z"></path>
<path fill="#5c76b2" style="fill: var(--color8, #5c76b2)" d="M20.641 22.5c1.105 0 2-0.896 2-2v-2c0-1.105-0.895-2-2-2v6z"></path>
<path fill="#f68820" style="fill: var(--color6, #f68820)" d="M20.641 7.5h-8c-1.104 0-2 0.896-2 2v5c0 1.104 0.896 2 2 2v6c0 1.657 1.343 3 3 3h2c1.657 0 3-1.343 3-3v-6c1.105 0 2-0.896 2-2v-5c0-1.104-0.895-2-2-2z"></path>
<path fill="#6fa4d8" style="fill: var(--color9, #6fa4d8)" d="M14.641 7.5h-5c-0.552 0-1-0.447-1-1v-0.5c0-0.276-0.224-0.5-0.5-0.5s-0.5 0.224-0.5 0.5v1.5c0 1.105 0.896 2 2 2h4c1.657 0 3 1.343 3 3v-3c0-1.104-0.895-2-2-2z"></path>
<path fill="#5c76b2" style="fill: var(--color8, #5c76b2)" d="M18.641 7.5h5c0.553 0 1-0.447 1-1v-0.5c0-0.276 0.224-0.5 0.5-0.5s0.5 0.224 0.5 0.5v1.5c0 1.105-0.895 2-2 2h-4c-1.657 0-3 1.343-3 3v-3c0-1.104 0.896-2 2-2z"></path>
<path fill="#f68820" style="fill: var(--color6, #f68820)" d="M24.641 29.5v2h-17v-2h17z"></path>
<path fill="#fbd301" style="fill: var(--color10, #fbd301)" d="M24.641 25.5v2h-17v-2h17z"></path>
<path fill="#fbbe18" style="fill: var(--color5, #fbbe18)" d="M7.641 27.5h17v2h-17v-2z"></path>
<path fill="#db9e68" style="fill: var(--color11, #db9e68)" d="M7.642 25.5l-5.553 2.777c-0.184 0.092-0.184 0.355 0 0.447l5.553 2.776v-6z"></path>
<path fill="#eec78e" style="fill: var(--color12, #eec78e)" d="M7.641 25.5l-5.553 2.777c-0.092 0.046-0.138 0.135-0.138 0.223h5.691v-3z"></path>
<path fill="#353744" style="fill: var(--color1, #353744)" d="M2.642 28l-0.553 0.276c-0.184 0.092-0.184 0.355 0 0.447l0.553 0.276v-1z"></path>
<path fill="#b3b4b6" style="fill: var(--color7, #b3b4b6)" d="M26.641 25.5v6h-2v-6h2z"></path>
<path fill="#dbdee3" style="fill: var(--color4, #dbdee3)" d="M26.641 25.5v3h-2v-3h2z"></path>
<path fill="#353744" style="fill: var(--color1, #353744)" d="M30.641 30v-3c0-0.828-0.671-1.5-1.5-1.5h-2.5v6h2.5c0.828 0 1.5-0.671 1.5-1.5z"></path>
<path fill="#55525b" style="fill: var(--color3, #55525b)" d="M30.641 28.5v-1.5c0-0.828-0.671-1.5-1.5-1.5h-2.5v3h4z"></path>
<path fill="#353744" style="fill: var(--color1, #353744)" d="M27.641 3.5h-22c-0.553 0-1-0.447-1-1s0.447-1 1-1h22c0.553 0 1 0.448 1 1s-0.447 1-1 1z"></path>
<path fill="#55525b" style="fill: var(--color3, #55525b)" d="M17.641 2.5c0-0.552-0.447-1-1-1h-11c-0.553 0-1 0.448-1 1s0.447 1 1 1h11c0.553 0 1-0.448 1-1z"></path>
<path fill="#353744" style="fill: var(--color1, #353744)" d="M22.891 7.5h-12.5c-0.276 0-0.5-0.224-0.5-0.5v-3.5h13.5v3.5c0 0.276-0.224 0.5-0.5 0.5z"></path>
<path fill="#55525b" style="fill: var(--color3, #55525b)" d="M16.641 7.5h-6.25c-0.276 0-0.5-0.224-0.5-0.5v-1.5h5.75c0.553 0 1 0.447 1 1v1z"></path>
<path fill="#f68820" style="fill: var(--color6, #f68820)" d="M25.641 1.5h1v6h-1v-6z"></path>
<path fill="#fbbe18" style="fill: var(--color5, #fbbe18)" d="M15.641 1.5h11c0-0.552-0.447-1-1-1h-9c-0.552 0-1 0.448-1 1z"></path>
<path fill="#fbbe18" style="fill: var(--color5, #fbbe18)" d="M26.141 8.5c0.552 0 1-0.448 1-1s-0.448-1-1-1-1 0.448-1 1c0 0.552 0.448 1 1 1z"></path>
<path fill="#b3b4b6" style="fill: var(--color7, #b3b4b6)" d="M25.141 7.5h2v1h-2v-1z"></path>
<path fill="#dbdee3" style="fill: var(--color4, #dbdee3)" d="M25.141 7.5h1v1h-1v-1z"></path>
<path fill="#fbbe18" style="fill: var(--color5, #fbbe18)" d="M26.141 12.5h-1c-0.276 0-0.5-0.224-0.5-0.5v-3c0-0.276 0.224-0.5 0.5-0.5h1v4z"></path>
<path fill="#f68820" style="fill: var(--color6, #f68820)" d="M26.141 12.5h1c0.276 0 0.5-0.224 0.5-0.5v-3c0-0.276-0.224-0.5-0.5-0.5h-1v4z"></path>
<path fill="#f68820" style="fill: var(--color6, #f68820)" d="M25.641 12.5v-3.25c0-0.138-0.112-0.25-0.25-0.25s-0.25 0.112-0.25 0.25v3.25h0.5z"></path>
<path fill="#fbbe18" style="fill: var(--color5, #fbbe18)" d="M27.141 12.5v-1.75c0-0.138-0.112-0.25-0.25-0.25s-0.25 0.112-0.25 0.25v1.75h0.5z"></path>
<path fill="#dbdee3" style="fill: var(--color4, #dbdee3)" d="M13.641 15.5c1.657 0 3-1.343 3-3s-1.343-3-3-3c-1.657 0-3 1.343-3 3s1.343 3 3 3z"></path>
<path fill="#55525b" style="fill: var(--color3, #55525b)" d="M13.641 13.5c0.552 0 1-0.448 1-1s-0.448-1-1-1c-0.552 0-1 0.448-1 1s0.448 1 1 1z"></path>
<path fill="#dbdee3" style="fill: var(--color4, #dbdee3)" d="M19.641 15.5c1.657 0 3-1.343 3-3s-1.343-3-3-3c-1.657 0-3 1.343-3 3s1.343 3 3 3z"></path>
<path fill="#55525b" style="fill: var(--color3, #55525b)" d="M19.641 13.5c0.552 0 1-0.448 1-1s-0.448-1-1-1c-0.552 0-1 0.448-1 1s0.448 1 1 1z"></path>
<path fill="#55525b" style="fill: var(--color3, #55525b)" d="M16.642 12.5c0.62 0 1.062 0.601 0.877 1.193l-0.4 1.28c-0.146 0.468-0.809 0.468-0.955 0l-0.4-1.28c-0.184-0.591 0.258-1.193 0.877-1.193z"></path>
<path fill="#fbbe18" style="fill: var(--color5, #fbbe18)" d="M15.141 17.5c-0.553 0-1-0.447-1-1h2c0 0.552-0.448 1-1 1z"></path>
<path fill="#fbbe18" style="fill: var(--color5, #fbbe18)" d="M18.141 17.5c-0.553 0-1-0.447-1-1h2c0 0.552-0.448 1-1 1z"></path>
<path fill="#fbbe18" style="fill: var(--color5, #fbbe18)" d="M15.141 21.5c-0.553 0-1-0.447-1-1h2c0 0.552-0.448 1-1 1z"></path>
<path fill="#fbbe18" style="fill: var(--color5, #fbbe18)" d="M18.141 21.5c-0.553 0-1-0.447-1-1h2c0 0.552-0.448 1-1 1z"></path>
<path fill="#fbbe18" style="fill: var(--color5, #fbbe18)" d="M16.641 19.5c-0.552 0-1-0.447-1-1h2c0 0.552-0.447 1-1 1z"></path>
<path fill="#fbbe18" style="fill: var(--color5, #fbbe18)" d="M16.641 23.5c-0.552 0-1-0.447-1-1h2c0 0.552-0.447 1-1 1z"></path>
<path fill="#6fa4d8" style="fill: var(--color9, #6fa4d8)" d="M13.391 26.5c0.276 0 0.5-0.224 0.5-0.5v-1c0-0.276-0.224-0.5-0.5-0.5s-0.5 0.224-0.5 0.5v1c0 0.276 0.224 0.5 0.5 0.5z"></path>
<path fill="#6fa4d8" style="fill: var(--color9, #6fa4d8)" d="M14.391 26.5c0.276 0 0.5-0.224 0.5-0.5v-1c0-0.276-0.224-0.5-0.5-0.5s-0.5 0.224-0.5 0.5v1c0 0.276 0.224 0.5 0.5 0.5z"></path>
<path fill="#6fa4d8" style="fill: var(--color9, #6fa4d8)" d="M15.391 26.5c0.276 0 0.5-0.224 0.5-0.5v-1c0-0.276-0.224-0.5-0.5-0.5s-0.5 0.224-0.5 0.5v1c0 0.276 0.224 0.5 0.5 0.5z"></path>
<path fill="#6fa4d8" style="fill: var(--color9, #6fa4d8)" d="M17.891 26.5c0.276 0 0.5-0.224 0.5-0.5v-1c0-0.276-0.224-0.5-0.5-0.5s-0.5 0.224-0.5 0.5v1c0 0.276 0.224 0.5 0.5 0.5z"></path>
<path fill="#6fa4d8" style="fill: var(--color9, #6fa4d8)" d="M18.891 26.5c0.276 0 0.5-0.224 0.5-0.5v-1c0-0.276-0.224-0.5-0.5-0.5s-0.5 0.224-0.5 0.5v1c0 0.276 0.224 0.5 0.5 0.5z"></path>
<path fill="#6fa4d8" style="fill: var(--color9, #6fa4d8)" d="M19.891 26.5c0.276 0 0.5-0.224 0.5-0.5v-1c0-0.276-0.224-0.5-0.5-0.5s-0.5 0.224-0.5 0.5v1c0 0.276 0.224 0.5 0.5 0.5z"></path>
</symbol>
<symbol id="icon-Vector" viewBox="0 0 32 32">
<title>Vector</title>
<path d="M3.706 6.375c1.973-2.667 4.806-4.187 8.018-5.022 3.935-1.023 8.147-2.235 11.596-0.078 4.282 2.677 8.404 7.155 7.719 12.154-0.669 4.878-6.705 6.199-10.642 9.156-4.462 3.352-7.876 10.277-13.261 8.799-5.405-1.484-6.242-8.813-7.003-14.364-0.535-3.903 1.232-7.479 3.574-10.645z"></path>
</symbol>
</defs>
</svg>
