<svg aria-hidden="true" style="position: absolute; width: 0; height: 0; overflow: hidden;" version="1.1" xmlns="http://www.w3.org/2000/svg" xmlns:xlink="http://www.w3.org/1999/xlink">
<defs>
<symbol id="icon-icon-arrow-next" viewBox="0 0 19 32">
<title>icon-arrow-next</title>
<path d="M1.281 0.855c0.108-0.108 0.235-0.193 0.376-0.252s0.292-0.088 0.444-0.088c0.152 0 0.303 0.030 0.444 0.088s0.269 0.144 0.376 0.252l13.899 13.899c0.108 0.108 0.193 0.235 0.252 0.376s0.088 0.292 0.088 0.444c0 0.152-0.030 0.303-0.088 0.444s-0.144 0.269-0.252 0.376l-13.899 13.899c-0.217 0.217-0.512 0.34-0.82 0.34s-0.603-0.122-0.82-0.34c-0.218-0.217-0.34-0.513-0.34-0.82s0.122-0.603 0.34-0.82l13.081-13.079-13.081-13.079c-0.108-0.108-0.193-0.235-0.252-0.376s-0.088-0.292-0.088-0.444c0-0.152 0.030-0.303 0.088-0.444s0.144-0.269 0.252-0.376z"></path>
</symbol>
</defs>
</svg>
