<svg width="20" height="20" viewBox="0 0 20 20" fill="none" xmlns="http://www.w3.org/2000/svg">
<path d="M4.99967 12.1384L3.633 18.0564C3.59068 18.2356 3.60338 18.4234 3.66945 18.5953C3.73552 18.7671 3.85189 18.9151 4.00335 19.0198C4.15481 19.1245 4.33432 19.1811 4.51845 19.1822C4.70258 19.1833 4.88275 19.1288 5.03545 19.0259L10.0298 15.6964L15.0241 19.0259C15.1804 19.1297 15.3646 19.1831 15.5521 19.1789C15.7396 19.1748 15.9213 19.1134 16.0729 19.0029C16.2244 18.8924 16.3385 18.7382 16.3998 18.5609C16.461 18.3837 16.4665 18.1919 16.4156 18.0115L14.7379 12.1412L18.8985 8.39701C19.0318 8.27702 19.1269 8.12061 19.1722 7.94712C19.2175 7.77362 19.211 7.59065 19.1534 7.42083C19.0958 7.25102 18.9897 7.1018 18.8483 6.99164C18.7068 6.88148 18.5361 6.81521 18.3574 6.80102L13.1282 6.3846L10.8654 1.37558C10.7932 1.21429 10.6759 1.07733 10.5277 0.981225C10.3794 0.885122 10.2065 0.833984 10.0298 0.833984C9.85309 0.833984 9.68017 0.885122 9.5319 0.981225C9.38363 1.07733 9.26634 1.21429 9.19419 1.37558L6.93137 6.3846L1.70222 6.8001C1.52653 6.81402 1.35857 6.87826 1.21843 6.98514C1.07829 7.09201 0.97191 7.237 0.912015 7.40275C0.85212 7.56851 0.841246 7.748 0.880693 7.91977C0.920141 8.09155 1.00824 8.24831 1.13445 8.37133L4.99967 12.1384ZM7.61654 8.17045C7.78027 8.15755 7.9375 8.10085 8.07177 8.00628C8.20604 7.91171 8.31239 7.78276 8.37968 7.63295L10.0298 3.98144L11.6799 7.63295C11.7472 7.78276 11.8535 7.91171 11.9878 8.00628C12.1221 8.10085 12.2793 8.15755 12.443 8.17045L16.0863 8.45938L13.086 11.1597C12.8255 11.3945 12.7219 11.7559 12.8173 12.0935L13.9666 16.1155L10.5398 13.8307C10.3894 13.7298 10.2123 13.6758 10.0312 13.6758C9.85002 13.6758 9.67297 13.7298 9.52256 13.8307L5.94167 16.2183L6.90477 12.0485C6.94008 11.8952 6.93534 11.7353 6.89101 11.5843C6.84667 11.4333 6.76423 11.2962 6.65161 11.1863L3.86506 8.46947L7.61654 8.17045Z" fill="#F3CD03"/>
</svg>
