<svg aria-hidden="true" style="position: absolute; width: 0; height: 0; overflow: hidden;" version="1.1" xmlns="http://www.w3.org/2000/svg" xmlns:xlink="http://www.w3.org/1999/xlink">
<defs>
<symbol id="icon-arrow-next" viewBox="0 0 38 32">
<title>arrow-next</title>
<path d="M0 16c0-0.606 0.253-1.187 0.703-1.616s1.060-0.669 1.697-0.669h27.803l-10.304-9.809c-0.451-0.429-0.704-1.011-0.704-1.618s0.253-1.189 0.704-1.618c0.451-0.429 1.062-0.67 1.699-0.67s1.248 0.241 1.699 0.67l14.398 13.712c0.223 0.212 0.401 0.464 0.522 0.742s0.183 0.575 0.183 0.876-0.062 0.598-0.183 0.876c-0.121 0.278-0.298 0.53-0.522 0.742l-14.398 13.712c-0.451 0.429-1.062 0.67-1.699 0.67s-1.248-0.241-1.699-0.67c-0.451-0.429-0.704-1.011-0.704-1.618s0.253-1.189 0.704-1.618l10.304-9.808h-27.803c-0.636 0-1.247-0.241-1.697-0.669s-0.703-1.010-0.703-1.616z"></path>
</symbol>
<symbol id="icon-twit" viewBox="0 0 41 32">
<title>twit</title>
<path d="M13.175 32c14.76 0 22.834-12.315 22.834-22.975 0-0.345 0-0.694-0.015-1.039 1.572-1.146 2.929-2.564 4.006-4.189-1.468 0.652-3.024 1.082-4.618 1.275 1.678-1.010 2.935-2.599 3.537-4.472-1.577 0.941-3.303 1.601-5.102 1.952-1.209-1.297-2.81-2.156-4.554-2.445s-3.533 0.010-5.091 0.85c-1.558 0.839-2.798 2.173-3.527 3.793s-0.908 3.438-0.507 5.171c-3.191-0.161-6.312-0.996-9.162-2.45s-5.364-3.495-7.38-5.99c-1.023 1.78-1.336 3.885-0.874 5.888s1.664 3.754 3.362 4.898c-1.272-0.044-2.517-0.388-3.632-1.004v0.111c0.002 1.864 0.644 3.671 1.816 5.114s2.803 2.435 4.618 2.807c-0.689 0.191-1.4 0.286-2.114 0.283-0.504 0.002-1.006-0.045-1.501-0.14 0.513 1.605 1.511 3.008 2.856 4.013s2.967 1.561 4.641 1.591c-2.844 2.249-6.357 3.469-9.973 3.463-0.637 0.003-1.274-0.034-1.907-0.111 3.67 2.356 7.933 3.607 12.286 3.606z"></path>
</symbol>
<symbol id="icon-inst" viewBox="0 0 33 32">
<title>inst</title>
<path d="M16.727 0c-4.342 0-4.888 0.020-6.594 0.096-1.706 0.080-2.868 0.348-3.886 0.744-1.068 0.402-2.035 1.032-2.834 1.846-0.814 0.799-1.444 1.766-1.846 2.834-0.396 1.016-0.666 2.18-0.744 3.88-0.076 1.71-0.096 2.254-0.096 6.602 0 4.344 0.020 4.888 0.096 6.594 0.080 1.704 0.348 2.866 0.744 3.884 0.41 1.052 0.956 1.944 1.846 2.834 0.888 0.89 1.78 1.438 2.832 1.846 1.020 0.396 2.18 0.666 3.884 0.744 1.708 0.076 2.252 0.096 6.598 0.096s4.888-0.020 6.596-0.096c1.702-0.080 2.868-0.348 3.886-0.744 1.067-0.402 2.034-1.032 2.832-1.846 0.89-0.89 1.436-1.782 1.846-2.834 0.394-1.018 0.664-2.18 0.744-3.884 0.076-1.706 0.096-2.25 0.096-6.596s-0.020-4.89-0.096-6.598c-0.080-1.702-0.35-2.866-0.744-3.882-0.402-1.068-1.032-2.035-1.846-2.834-0.799-0.815-1.766-1.445-2.834-1.846-1.020-0.396-2.184-0.666-3.886-0.744-1.708-0.076-2.25-0.096-6.598-0.096h0.004zM15.293 2.884h1.436c4.272 0 4.778 0.014 6.464 0.092 1.56 0.070 2.408 0.332 2.972 0.55 0.746 0.29 1.28 0.638 1.84 1.198s0.906 1.092 1.196 1.84c0.22 0.562 0.48 1.41 0.55 2.97 0.078 1.686 0.094 2.192 0.094 6.462s-0.016 4.778-0.094 6.464c-0.070 1.56-0.332 2.406-0.55 2.97-0.257 0.695-0.666 1.323-1.198 1.838-0.56 0.56-1.092 0.906-1.84 1.196-0.56 0.22-1.408 0.48-2.97 0.552-1.686 0.076-2.192 0.094-6.464 0.094s-4.78-0.018-6.466-0.094c-1.56-0.072-2.406-0.332-2.97-0.552-0.695-0.256-1.324-0.665-1.84-1.196-0.532-0.516-0.943-1.145-1.2-1.84-0.218-0.562-0.48-1.41-0.55-2.97-0.076-1.686-0.092-2.192-0.092-6.466 0-4.272 0.016-4.776 0.092-6.462 0.072-1.56 0.332-2.408 0.552-2.972 0.29-0.746 0.638-1.28 1.198-1.84s1.092-0.906 1.84-1.196c0.564-0.22 1.41-0.48 2.97-0.552 1.476-0.068 2.048-0.088 5.030-0.090v0.004zM25.269 5.54c-0.252 0-0.502 0.050-0.735 0.146s-0.445 0.238-0.623 0.416c-0.178 0.178-0.32 0.39-0.416 0.623s-0.146 0.483-0.146 0.735c0 0.252 0.050 0.502 0.146 0.735s0.238 0.445 0.416 0.623c0.178 0.178 0.39 0.32 0.623 0.416s0.483 0.146 0.735 0.146c0.509 0 0.998-0.202 1.358-0.562s0.562-0.848 0.562-1.358-0.202-0.998-0.562-1.358c-0.36-0.36-0.848-0.562-1.358-0.562zM16.729 7.784c-1.090-0.017-2.172 0.183-3.184 0.588s-1.933 1.008-2.71 1.773-1.394 1.676-1.815 2.682c-0.421 1.005-0.638 2.084-0.638 3.174s0.217 2.169 0.638 3.174c0.421 1.005 1.038 1.917 1.815 2.682s1.698 1.367 2.71 1.773c1.012 0.405 2.094 0.605 3.184 0.588 2.157-0.034 4.214-0.914 5.728-2.451s2.362-3.608 2.362-5.766-0.848-4.228-2.362-5.765c-1.513-1.537-3.571-2.418-5.728-2.451zM16.729 10.666c1.415 0 2.771 0.562 3.772 1.562s1.562 2.357 1.562 3.772c0 1.415-0.562 2.771-1.562 3.772s-2.357 1.562-3.772 1.562-2.771-0.562-3.772-1.562c-1-1-1.562-2.357-1.562-3.772s0.562-2.771 1.562-3.772c1-1 2.357-1.562 3.772-1.562z"></path>
</symbol>
<symbol id="icon-fb" viewBox="0 0 33 32">
<title>fb</title>
<path d="M32.696 16.098c0-8.891-7.163-16.098-15.998-16.098-8.839 0.002-16.002 7.207-16.002 16.1 0 8.033 5.851 14.692 13.498 15.9v-11.249h-4.059v-4.651h4.064v-3.55c0-4.034 2.39-6.261 6.043-6.261 1.752 0 3.581 0.314 3.581 0.314v3.96h-2.018c-1.986 0-2.606 1.242-2.606 2.516v3.020h4.435l-0.708 4.651h-3.73v11.249c7.647-1.208 13.498-7.867 13.498-15.9z"></path>
</symbol>
<symbol id="icon-email" viewBox="0 0 37 32">
<title>email</title>
<path d="M-1.4 4.14c0.25-1.122 0.863-2.124 1.741-2.841s1.966-1.108 3.088-1.108h29.714c1.122-0 2.211 0.391 3.088 1.108s1.491 1.719 1.74 2.841l-19.686 12.34-19.686-12.34zM-1.524 7.040v18.042l14.369-9.036-14.369-9.006zM15.218 17.536l-16.269 10.227c0.402 0.869 1.036 1.604 1.829 2.117s1.712 0.786 2.65 0.785h29.714c0.938 0 1.857-0.273 2.649-0.787s1.426-1.249 1.828-2.118l-16.268-10.227-3.066 1.922-3.068-1.92zM23.726 16.048l14.369 9.034v-18.042l-14.369 9.008z"></path>
</symbol>
<symbol id="icon-loc" viewBox="0 0 26 32">
<title>loc</title>
<path d="M12.8 19.2c3.529 0 6.4-2.87 6.4-6.4s-2.87-6.4-6.4-6.4c-3.53 0-6.4 2.87-6.4 6.4s2.87 6.4 6.4 6.4zM12.8 9.6c1.765 0 3.2 1.435 3.2 3.2s-1.435 3.2-3.2 3.2c-1.765 0-3.2-1.435-3.2-3.2s1.435-3.2 3.2-3.2zM11.872 31.702c0.271 0.193 0.595 0.297 0.928 0.297s0.657-0.104 0.928-0.297c0.486-0.344 11.918-8.598 11.872-18.902 0-7.058-5.742-12.8-12.8-12.8s-12.8 5.742-12.8 12.792c-0.046 10.312 11.385 18.566 11.872 18.91zM12.8 3.2c5.294 0 9.6 4.306 9.6 9.608 0.034 7.101-7.021 13.477-9.6 15.568-2.578-2.093-9.633-8.47-9.6-15.576 0-5.294 4.306-9.6 9.6-9.6zM12.8 19.2c3.529 0 6.4-2.87 6.4-6.4s-2.87-6.4-6.4-6.4c-3.53 0-6.4 2.87-6.4 6.4s2.87 6.4 6.4 6.4zM12.8 9.6c1.765 0 3.2 1.435 3.2 3.2s-1.435 3.2-3.2 3.2c-1.765 0-3.2-1.435-3.2-3.2s1.435-3.2 3.2-3.2zM11.872 31.702c0.271 0.193 0.595 0.297 0.928 0.297s0.657-0.104 0.928-0.297c0.486-0.344 11.918-8.598 11.872-18.902 0-7.058-5.742-12.8-12.8-12.8s-12.8 5.742-12.8 12.792c-0.046 10.312 11.385 18.566 11.872 18.91zM12.8 3.2c5.294 0 9.6 4.306 9.6 9.608 0.034 7.101-7.021 13.477-9.6 15.568-2.578-2.093-9.633-8.47-9.6-15.576 0-5.294 4.306-9.6 9.6-9.6z"></path>
</symbol>
<symbol id="icon-tel" viewBox="0 0 32 32">
<title>tel</title>
<path d="M24.832 17.185c-0.155-0.155-0.339-0.278-0.541-0.362s-0.42-0.127-0.639-0.127c-0.219 0-0.436 0.043-0.639 0.127s-0.387 0.207-0.541 0.362l-2.661 2.661c-1.234-0.367-3.536-1.202-4.995-2.661s-2.294-3.761-2.661-4.995l2.661-2.661c0.155-0.155 0.278-0.339 0.362-0.541s0.127-0.42 0.127-0.639c0-0.219-0.043-0.436-0.127-0.639s-0.207-0.387-0.362-0.541l-6.678-6.678c-0.155-0.155-0.339-0.278-0.541-0.362s-0.42-0.127-0.639-0.127c-0.219 0-0.436 0.043-0.639 0.127s-0.387 0.207-0.541 0.362l-4.528 4.528c-0.634 0.634-0.992 1.506-0.978 2.396 0.038 2.377 0.668 10.635 7.176 17.143s14.766 7.136 17.145 7.176h0.047c0.882 0 1.715-0.347 2.346-0.978l4.528-4.528c0.155-0.155 0.278-0.339 0.362-0.541s0.127-0.42 0.127-0.639c0-0.219-0.043-0.436-0.127-0.639s-0.207-0.387-0.362-0.541l-6.678-6.68zM24.62 28.391c-2.083-0.035-9.213-0.594-14.814-6.197-5.62-5.62-6.164-12.774-6.197-14.816l3.347-3.347 4.317 4.317-2.159 2.159c-0.196 0.196-0.341 0.438-0.42 0.704s-0.091 0.547-0.034 0.819c0.040 0.192 1.020 4.745 3.792 7.516s7.324 3.752 7.516 3.792c0.271 0.058 0.553 0.047 0.819-0.032s0.508-0.224 0.704-0.421l2.16-2.159 4.317 4.317-3.349 3.347z"></path>
</symbol>
<symbol id="icon-sales" viewBox="0 0 34 32">
<title>sales</title>
<path fill="#737373" style="fill: var(--color1, #737373)" d="M2 19.801c0.265 0 0.52 0.105 0.707 0.293s0.293 0.442 0.293 0.707v5c0 0.53 0.211 1.039 0.586 1.414s0.884 0.586 1.414 0.586h24c0.53 0 1.039-0.211 1.414-0.586s0.586-0.884 0.586-1.414v-5c0-0.265 0.105-0.52 0.293-0.707s0.442-0.293 0.707-0.293 0.52 0.105 0.707 0.293c0.187 0.188 0.293 0.442 0.293 0.707v5c0 1.061-0.421 2.078-1.172 2.828s-1.768 1.172-2.828 1.172h-24c-1.061 0-2.078-0.421-2.828-1.172s-1.172-1.768-1.172-2.828v-5c0-0.265 0.105-0.52 0.293-0.707s0.442-0.293 0.707-0.293z"></path>
<path fill="#737373" style="fill: var(--color1, #737373)" d="M16.293 23.708c0.093 0.093 0.203 0.167 0.325 0.217s0.252 0.076 0.383 0.076c0.132 0 0.262-0.026 0.383-0.076s0.232-0.124 0.325-0.217l6-6c0.188-0.188 0.293-0.442 0.293-0.708s-0.106-0.52-0.293-0.708c-0.188-0.188-0.442-0.293-0.708-0.293s-0.52 0.105-0.708 0.293l-4.292 4.294v-17.586c0-0.265-0.105-0.52-0.293-0.707s-0.442-0.293-0.707-0.293c-0.265 0-0.52 0.105-0.707 0.293s-0.293 0.442-0.293 0.707v17.586l-4.292-4.294c-0.188-0.188-0.442-0.293-0.708-0.293s-0.52 0.105-0.708 0.293c-0.188 0.188-0.293 0.442-0.293 0.708s0.105 0.52 0.293 0.708l6 6z"></path>
</symbol>
<symbol id="icon-star" viewBox="0 0 30 32">
<title>star</title>
<path fill="#ffce31" style="fill: var(--color2, #ffce31)" d="M30 12.6h-11.45l-3.55-11.1-3.55 11.1h-11.45l9.25 6.85-3.5 11.050 9.25-6.85 9.25 6.85-3.55-11.1 9.3-6.8z"></path>
</symbol>
<symbol id="icon-see" viewBox="0 0 34 32">
<title>see</title>
<path d="M20.8 16c0 1.061-0.421 2.078-1.172 2.828s-1.768 1.172-2.828 1.172c-1.061 0-2.078-0.421-2.828-1.172s-1.172-1.768-1.172-2.828c0-1.061 0.421-2.078 1.172-2.828s1.768-1.172 2.828-1.172c1.061 0 2.078 0.421 2.828 1.172s1.172 1.768 1.172 2.828z"></path>
<path d="M4 16c0 0 4.8-8.8 12.8-8.8s12.8 8.8 12.8 8.8c0 0-4.8 8.8-12.8 8.8s-12.8-8.8-12.8-8.8zM16.8 21.6c1.485 0 2.91-0.59 3.96-1.64s1.64-2.475 1.64-3.96c0-1.485-0.59-2.91-1.64-3.96s-2.475-1.64-3.96-1.64c-1.485 0-2.91 0.59-3.96 1.64s-1.64 2.475-1.64 3.96c0 1.485 0.59 2.91 1.64 3.96s2.475 1.64 3.96 1.64z"></path>
</symbol>
<symbol id="icon-buy" viewBox="0 0 34 32">
<title>buy</title>
<path d="M0.842 1.067c0-0.283 0.112-0.554 0.312-0.754s0.471-0.312 0.754-0.312h3.2c0.238 0 0.469 0.080 0.657 0.226s0.321 0.352 0.378 0.582l0.864 3.458h24.769c0.157 0 0.311 0.035 0.453 0.101s0.267 0.164 0.367 0.284c0.1 0.121 0.172 0.262 0.212 0.413s0.045 0.31 0.016 0.464l-3.2 17.067c-0.046 0.245-0.175 0.465-0.367 0.624s-0.432 0.246-0.681 0.246h-19.201c-0.249-0-0.489-0.087-0.681-0.246s-0.321-0.38-0.367-0.624l-3.198-17.035-0.853-3.428h-2.368c-0.283 0-0.554-0.112-0.754-0.312s-0.312-0.471-0.312-0.754zM7.46 6.4l2.801 14.933h17.43l2.801-14.933h-23.032zM11.509 23.467c-1.132 0-2.217 0.45-3.017 1.25s-1.25 1.885-1.25 3.017c0 1.131 0.45 2.217 1.25 3.017s1.885 1.25 3.017 1.25c1.132 0 2.217-0.45 3.017-1.25s1.25-1.885 1.25-3.017c0-1.132-0.45-2.217-1.25-3.017s-1.885-1.25-3.017-1.25zM26.443 23.467c-1.132 0-2.217 0.45-3.017 1.25s-1.25 1.885-1.25 3.017c0 1.131 0.45 2.217 1.25 3.017s1.885 1.25 3.017 1.25c1.132 0 2.217-0.45 3.017-1.25s1.25-1.885 1.25-3.017c0-1.132-0.45-2.217-1.25-3.017s-1.885-1.25-3.017-1.25zM11.509 25.6c0.566 0 1.108 0.225 1.509 0.625s0.625 0.943 0.625 1.509c0 0.566-0.225 1.108-0.625 1.508s-0.943 0.625-1.509 0.625-1.108-0.225-1.509-0.625c-0.4-0.4-0.625-0.943-0.625-1.508s0.225-1.109 0.625-1.509 0.943-0.625 1.509-0.625zM26.443 25.6c0.566 0 1.108 0.225 1.509 0.625s0.625 0.943 0.625 1.509c0 0.566-0.225 1.108-0.625 1.508s-0.943 0.625-1.509 0.625c-0.566 0-1.109-0.225-1.509-0.625s-0.625-0.943-0.625-1.508c0-0.566 0.225-1.109 0.625-1.509s0.943-0.625 1.509-0.625z"></path>
</symbol>
<symbol id="icon-like" viewBox="0 0 36 32">
<title>like</title>
<path stroke-linejoin="miter" stroke-linecap="butt" stroke-miterlimit="4" stroke-width="1.1765" d="M17.883 7.441l-2.569-2.63c-0.655-0.667-1.436-1.197-2.298-1.558s-1.787-0.548-2.722-0.548c-0.935 0-1.86 0.186-2.722 0.548s-1.643 0.891-2.298 1.558c-1.344 1.365-2.097 3.203-2.097 5.118s0.753 3.754 2.098 5.119l0.001 0.001 12.607 12.765 12.607-12.766c1.344-1.365 2.098-3.203 2.098-5.119s-0.753-3.754-2.097-5.118c-0.654-0.667-1.435-1.197-2.297-1.559s-1.787-0.547-2.721-0.547c-0 0-0.001 0-0.001 0l0.001 0.588M17.883 7.441l2.556-2.606 0.42 0.412M17.883 7.441l2.553-2.603M17.883 7.441l2.553-2.603M25.47 3.294c-0.861-0.001-1.712 0.171-2.505 0.507s-1.509 0.827-2.107 1.446M25.47 3.294c0.856-0.001 1.705 0.17 2.494 0.501s1.506 0.817 2.105 1.429l-4.6-1.929zM20.858 5.247l-0.423-0.409M20.858 5.247l-0.423-0.409M25.47 1.529h0c1.092 0 2.172 0.218 3.179 0.64s1.919 1.041 2.684 1.819c1.56 1.588 2.434 3.726 2.434 5.952s-0.874 4.363-2.434 5.952c-0 0-0.001 0.001-0.001 0.001l-13.451 13.622-13.451-13.622c-0-0-0-0-0.001-0.001-1.56-1.588-2.434-3.726-2.434-5.952s0.874-4.364 2.434-5.952c0.765-0.778 1.678-1.396 2.684-1.818s2.087-0.639 3.178-0.639c1.091 0 2.172 0.217 3.178 0.639s1.919 1.040 2.684 1.818l0.002 0.002 1.724 1.739 1.726-1.741c0.764-0.779 1.676-1.398 2.683-1.821s2.087-0.639 3.179-0.638z"></path>
</symbol>
<symbol id="icon-arrow" viewBox="0 0 19 32">
<title>arrow</title>
<path d="M1.281 0.855c0.108-0.108 0.235-0.193 0.376-0.252s0.292-0.088 0.444-0.088c0.152 0 0.303 0.030 0.444 0.088s0.269 0.144 0.376 0.252l13.899 13.899c0.108 0.108 0.193 0.235 0.252 0.376s0.088 0.292 0.088 0.444c0 0.152-0.030 0.303-0.088 0.444s-0.144 0.269-0.252 0.376l-13.899 13.899c-0.217 0.217-0.512 0.34-0.82 0.34s-0.603-0.122-0.82-0.34c-0.218-0.217-0.34-0.513-0.34-0.82s0.122-0.603 0.34-0.82l13.081-13.079-13.081-13.079c-0.108-0.108-0.193-0.235-0.252-0.376s-0.088-0.292-0.088-0.444c0-0.152 0.030-0.303 0.088-0.444s0.144-0.269 0.252-0.376z"></path>
</symbol>
<symbol id="icon-Vector-back" viewBox="0 0 32 32">
<title>Vector-back</title>
<path d="M3.706 6.375c1.973-2.667 4.806-4.187 8.018-5.022 3.935-1.023 8.147-2.235 11.596-0.078 4.282 2.677 8.404 7.155 7.719 12.154-0.669 4.878-6.705 6.199-10.642 9.156-4.462 3.352-7.876 10.277-13.261 8.799-5.405-1.484-6.242-8.813-7.003-14.364-0.535-3.903 1.232-7.479 3.574-10.645z"></path>
</symbol>
<symbol id="icon-owl" viewBox="0 0 33 32">
<title>owl</title>
<path fill="#6fa4d8" style="fill: var(--color3, #6fa4d8)" d="M12.641 22.5c-1.104 0-2-0.896-2-2v-2c0-1.105 0.896-2 2-2v6z"></path>
<path fill="#5c76b2" style="fill: var(--color4, #5c76b2)" d="M20.641 22.5c1.105 0 2-0.896 2-2v-2c0-1.105-0.895-2-2-2v6z"></path>
<path fill="#f68820" style="fill: var(--color5, #f68820)" d="M20.641 7.5h-8c-1.104 0-2 0.896-2 2v5c0 1.104 0.896 2 2 2v6c0 1.657 1.343 3 3 3h2c1.657 0 3-1.343 3-3v-6c1.105 0 2-0.896 2-2v-5c0-1.104-0.895-2-2-2z"></path>
<path fill="#6fa4d8" style="fill: var(--color3, #6fa4d8)" d="M14.641 7.5h-5c-0.552 0-1-0.447-1-1v-0.5c0-0.276-0.224-0.5-0.5-0.5s-0.5 0.224-0.5 0.5v1.5c0 1.105 0.896 2 2 2h4c1.657 0 3 1.343 3 3v-3c0-1.104-0.895-2-2-2z"></path>
<path fill="#5c76b2" style="fill: var(--color4, #5c76b2)" d="M18.641 7.5h5c0.553 0 1-0.447 1-1v-0.5c0-0.276 0.224-0.5 0.5-0.5s0.5 0.224 0.5 0.5v1.5c0 1.105-0.895 2-2 2h-4c-1.657 0-3 1.343-3 3v-3c0-1.104 0.896-2 2-2z"></path>
<path fill="#f68820" style="fill: var(--color5, #f68820)" d="M24.641 29.5v2h-17v-2h17z"></path>
<path fill="#fbd301" style="fill: var(--color6, #fbd301)" d="M24.641 25.5v2h-17v-2h17z"></path>
<path fill="#fbbe18" style="fill: var(--color7, #fbbe18)" d="M7.641 27.5h17v2h-17v-2z"></path>
<path fill="#db9e68" style="fill: var(--color8, #db9e68)" d="M7.642 25.5l-5.553 2.777c-0.184 0.092-0.184 0.355 0 0.447l5.553 2.776v-6z"></path>
<path fill="#eec78e" style="fill: var(--color9, #eec78e)" d="M7.641 25.5l-5.553 2.777c-0.092 0.046-0.138 0.135-0.138 0.223h5.691v-3z"></path>
<path fill="#353744" style="fill: var(--color10, #353744)" d="M2.642 28l-0.553 0.276c-0.184 0.092-0.184 0.355 0 0.447l0.553 0.276v-1z"></path>
<path fill="#b3b4b6" style="fill: var(--color11, #b3b4b6)" d="M26.641 25.5v6h-2v-6h2z"></path>
<path fill="#dbdee3" style="fill: var(--color12, #dbdee3)" d="M26.641 25.5v3h-2v-3h2z"></path>
<path fill="#353744" style="fill: var(--color10, #353744)" d="M30.641 30v-3c0-0.828-0.671-1.5-1.5-1.5h-2.5v6h2.5c0.828 0 1.5-0.671 1.5-1.5z"></path>
<path fill="#55525b" style="fill: var(--color13, #55525b)" d="M30.641 28.5v-1.5c0-0.828-0.671-1.5-1.5-1.5h-2.5v3h4z"></path>
<path fill="#353744" style="fill: var(--color10, #353744)" d="M27.641 3.5h-22c-0.553 0-1-0.447-1-1s0.447-1 1-1h22c0.553 0 1 0.448 1 1s-0.447 1-1 1z"></path>
<path fill="#55525b" style="fill: var(--color13, #55525b)" d="M17.641 2.5c0-0.552-0.447-1-1-1h-11c-0.553 0-1 0.448-1 1s0.447 1 1 1h11c0.553 0 1-0.448 1-1z"></path>
<path fill="#353744" style="fill: var(--color10, #353744)" d="M22.891 7.5h-12.5c-0.276 0-0.5-0.224-0.5-0.5v-3.5h13.5v3.5c0 0.276-0.224 0.5-0.5 0.5z"></path>
<path fill="#55525b" style="fill: var(--color13, #55525b)" d="M16.641 7.5h-6.25c-0.276 0-0.5-0.224-0.5-0.5v-1.5h5.75c0.553 0 1 0.447 1 1v1z"></path>
<path fill="#f68820" style="fill: var(--color5, #f68820)" d="M25.641 1.5h1v6h-1v-6z"></path>
<path fill="#fbbe18" style="fill: var(--color7, #fbbe18)" d="M15.641 1.5h11c0-0.552-0.447-1-1-1h-9c-0.552 0-1 0.448-1 1z"></path>
<path fill="#fbbe18" style="fill: var(--color7, #fbbe18)" d="M26.141 8.5c0.552 0 1-0.448 1-1s-0.448-1-1-1-1 0.448-1 1c0 0.552 0.448 1 1 1z"></path>
<path fill="#b3b4b6" style="fill: var(--color11, #b3b4b6)" d="M25.141 7.5h2v1h-2v-1z"></path>
<path fill="#dbdee3" style="fill: var(--color12, #dbdee3)" d="M25.141 7.5h1v1h-1v-1z"></path>
<path fill="#fbbe18" style="fill: var(--color7, #fbbe18)" d="M26.141 12.5h-1c-0.276 0-0.5-0.224-0.5-0.5v-3c0-0.276 0.224-0.5 0.5-0.5h1v4z"></path>
<path fill="#f68820" style="fill: var(--color5, #f68820)" d="M26.141 12.5h1c0.276 0 0.5-0.224 0.5-0.5v-3c0-0.276-0.224-0.5-0.5-0.5h-1v4z"></path>
<path fill="#f68820" style="fill: var(--color5, #f68820)" d="M25.641 12.5v-3.25c0-0.138-0.112-0.25-0.25-0.25s-0.25 0.112-0.25 0.25v3.25h0.5z"></path>
<path fill="#fbbe18" style="fill: var(--color7, #fbbe18)" d="M27.141 12.5v-1.75c0-0.138-0.112-0.25-0.25-0.25s-0.25 0.112-0.25 0.25v1.75h0.5z"></path>
<path fill="#dbdee3" style="fill: var(--color12, #dbdee3)" d="M13.641 15.5c1.657 0 3-1.343 3-3s-1.343-3-3-3c-1.657 0-3 1.343-3 3s1.343 3 3 3z"></path>
<path fill="#55525b" style="fill: var(--color13, #55525b)" d="M13.641 13.5c0.552 0 1-0.448 1-1s-0.448-1-1-1c-0.552 0-1 0.448-1 1s0.448 1 1 1z"></path>
<path fill="#dbdee3" style="fill: var(--color12, #dbdee3)" d="M19.641 15.5c1.657 0 3-1.343 3-3s-1.343-3-3-3c-1.657 0-3 1.343-3 3s1.343 3 3 3z"></path>
<path fill="#55525b" style="fill: var(--color13, #55525b)" d="M19.641 13.5c0.552 0 1-0.448 1-1s-0.448-1-1-1c-0.552 0-1 0.448-1 1s0.448 1 1 1z"></path>
<path fill="#55525b" style="fill: var(--color13, #55525b)" d="M16.642 12.5c0.62 0 1.062 0.601 0.877 1.193l-0.4 1.28c-0.146 0.468-0.809 0.468-0.955 0l-0.4-1.28c-0.184-0.591 0.258-1.193 0.877-1.193z"></path>
<path fill="#fbbe18" style="fill: var(--color7, #fbbe18)" d="M15.141 17.5c-0.553 0-1-0.447-1-1h2c0 0.552-0.448 1-1 1z"></path>
<path fill="#fbbe18" style="fill: var(--color7, #fbbe18)" d="M18.141 17.5c-0.553 0-1-0.447-1-1h2c0 0.552-0.448 1-1 1z"></path>
<path fill="#fbbe18" style="fill: var(--color7, #fbbe18)" d="M15.141 21.5c-0.553 0-1-0.447-1-1h2c0 0.552-0.448 1-1 1z"></path>
<path fill="#fbbe18" style="fill: var(--color7, #fbbe18)" d="M18.141 21.5c-0.553 0-1-0.447-1-1h2c0 0.552-0.448 1-1 1z"></path>
<path fill="#fbbe18" style="fill: var(--color7, #fbbe18)" d="M16.641 19.5c-0.552 0-1-0.447-1-1h2c0 0.552-0.447 1-1 1z"></path>
<path fill="#fbbe18" style="fill: var(--color7, #fbbe18)" d="M16.641 23.5c-0.552 0-1-0.447-1-1h2c0 0.552-0.447 1-1 1z"></path>
<path fill="#6fa4d8" style="fill: var(--color3, #6fa4d8)" d="M13.391 26.5c0.276 0 0.5-0.224 0.5-0.5v-1c0-0.276-0.224-0.5-0.5-0.5s-0.5 0.224-0.5 0.5v1c0 0.276 0.224 0.5 0.5 0.5z"></path>
<path fill="#6fa4d8" style="fill: var(--color3, #6fa4d8)" d="M14.391 26.5c0.276 0 0.5-0.224 0.5-0.5v-1c0-0.276-0.224-0.5-0.5-0.5s-0.5 0.224-0.5 0.5v1c0 0.276 0.224 0.5 0.5 0.5z"></path>
<path fill="#6fa4d8" style="fill: var(--color3, #6fa4d8)" d="M15.391 26.5c0.276 0 0.5-0.224 0.5-0.5v-1c0-0.276-0.224-0.5-0.5-0.5s-0.5 0.224-0.5 0.5v1c0 0.276 0.224 0.5 0.5 0.5z"></path>
<path fill="#6fa4d8" style="fill: var(--color3, #6fa4d8)" d="M17.891 26.5c0.276 0 0.5-0.224 0.5-0.5v-1c0-0.276-0.224-0.5-0.5-0.5s-0.5 0.224-0.5 0.5v1c0 0.276 0.224 0.5 0.5 0.5z"></path>
<path fill="#6fa4d8" style="fill: var(--color3, #6fa4d8)" d="M18.891 26.5c0.276 0 0.5-0.224 0.5-0.5v-1c0-0.276-0.224-0.5-0.5-0.5s-0.5 0.224-0.5 0.5v1c0 0.276 0.224 0.5 0.5 0.5z"></path>
<path fill="#6fa4d8" style="fill: var(--color3, #6fa4d8)" d="M19.891 26.5c0.276 0 0.5-0.224 0.5-0.5v-1c0-0.276-0.224-0.5-0.5-0.5s-0.5 0.224-0.5 0.5v1c0 0.276 0.224 0.5 0.5 0.5z"></path>
</symbol>
<symbol id="icon-flank" viewBox="0 0 33 32">
<title>flank</title>
<path fill="#6fa4d8" style="fill: var(--color3, #6fa4d8)" d="M19.297 19.5v-5h-6v5l-7.2 9.6c-0.742 0.989-0.036 2.4 1.2 2.4h18c1.236 0 1.941-1.411 1.2-2.4l-7.2-9.6z"></path>
<path fill="#5c76b2" style="fill: var(--color4, #5c76b2)" d="M26.496 29.1l-7.2-9.6v-5h-6v1.25h2.25c0.414 0 0.75 0.336 0.75 0.75v3l4 12h5c1.236 0 1.942-1.411 1.2-2.4z"></path>
<path fill="#6fa4d8" style="fill: var(--color3, #6fa4d8)" d="M19.296 14.5h-6c-0.552 0-1-0.448-1-1s0.448-1 1-1h6c0.552 0 1 0.447 1 1s-0.448 1-1 1z"></path>
<path fill="#5c76b2" style="fill: var(--color4, #5c76b2)" d="M19.296 12.5h-3c0.552 0 1 0.447 1 1s-0.448 1-1 1h3c0.552 0 1-0.448 1-1s-0.448-1-1-1z"></path>
<path fill="#f68820" style="fill: var(--color5, #f68820)" d="M24.296 29.5h-16l3.751-5.001c1.062-1.417 3.188-1.417 4.25-0.001l0.001 0c1.063 1.416 3.186 1.416 4.249 0.001l3.75 5z"></path>
<path fill="#fbbe18" style="fill: var(--color7, #fbbe18)" d="M20.546 24.5l-0.001-0.001c-1.062-1.417-3.188-1.417-4.25-0.001l-0.001 0c-1.063 1.416-3.186 1.416-4.249 0.001l-3.75 5h16l-3.75-5z"></path>
<path fill="#f68820" style="fill: var(--color5, #f68820)" d="M20.547 24.5l-0.001-0.001c-0.705-0.941-1.878-1.253-2.898-0.945l1.982 5.945h4.666l-3.75-5z"></path>
<path fill="#f68820" style="fill: var(--color5, #f68820)" d="M14.546 27.75c0.414 0 0.75-0.336 0.75-0.75s-0.336-0.75-0.75-0.75c-0.414 0-0.75 0.336-0.75 0.75s0.336 0.75 0.75 0.75z"></path>
<path fill="#f68820" style="fill: var(--color5, #f68820)" d="M12.796 28.75c0.276 0 0.5-0.224 0.5-0.5s-0.224-0.5-0.5-0.5c-0.276 0-0.5 0.224-0.5 0.5s0.224 0.5 0.5 0.5z"></path>
<path fill="#f68820" style="fill: var(--color5, #f68820)" d="M13.796 9.5c1.381 0 2.5-1.119 2.5-2.5s-1.119-2.5-2.5-2.5c-1.381 0-2.5 1.119-2.5 2.5s1.119 2.5 2.5 2.5z"></path>
<path fill="#fbbe18" style="fill: var(--color7, #fbbe18)" d="M13.046 7c0.414 0 0.75-0.336 0.75-0.75s-0.336-0.75-0.75-0.75c-0.414 0-0.75 0.336-0.75 0.75s0.336 0.75 0.75 0.75z"></path>
<path fill="#f68820" style="fill: var(--color5, #f68820)" d="M18.796 11.5c0.828 0 1.5-0.672 1.5-1.5s-0.672-1.5-1.5-1.5c-0.828 0-1.5 0.672-1.5 1.5s0.672 1.5 1.5 1.5z"></path>
<path fill="#fbbe18" style="fill: var(--color7, #fbbe18)" d="M18.296 10c0.276 0 0.5-0.224 0.5-0.5s-0.224-0.5-0.5-0.5-0.5 0.224-0.5 0.5c0 0.276 0.224 0.5 0.5 0.5z"></path>
<path fill="#f68820" style="fill: var(--color5, #f68820)" d="M20.921 1.125c0 0.345-0.625 1.375-0.625 1.375s-0.625-1.030-0.625-1.375c0-0.345 0.28-0.625 0.625-0.625s0.625 0.28 0.625 0.625z"></path>
<path fill="#f68820" style="fill: var(--color5, #f68820)" d="M18.552 1.771c0.299 0.173 0.878 1.229 0.878 1.229s-1.204 0.026-1.503-0.146c-0.299-0.173-0.401-0.555-0.229-0.854s0.555-0.401 0.854-0.229z"></path>
<path fill="#f68820" style="fill: var(--color5, #f68820)" d="M17.927 4.146c0.299-0.172 1.504-0.146 1.504-0.146s-0.579 1.056-0.879 1.229c-0.299 0.173-0.681 0.070-0.854-0.229s-0.070-0.681 0.229-0.854z"></path>
<path fill="#f68820" style="fill: var(--color5, #f68820)" d="M19.671 5.875c0-0.345 0.625-1.375 0.625-1.375s0.625 1.030 0.625 1.375c0 0.345-0.28 0.625-0.625 0.625s-0.625-0.28-0.625-0.625z"></path>
<path fill="#f68820" style="fill: var(--color5, #f68820)" d="M22.041 5.229c-0.299-0.173-0.879-1.229-0.879-1.229s1.204-0.026 1.504 0.146c0.299 0.173 0.401 0.555 0.229 0.854s-0.555 0.402-0.854 0.229z"></path>
<path fill="#f68820" style="fill: var(--color5, #f68820)" d="M22.666 2.854c-0.299 0.172-1.504 0.146-1.504 0.146s0.579-1.056 0.879-1.229c0.299-0.173 0.681-0.070 0.854 0.229s0.070 0.681-0.229 0.854z"></path>
</symbol>
<symbol id="icon-telescope" viewBox="0 0 30 32">
<title>telescope</title>
<path fill="#f68820" style="fill: var(--color5, #f68820)" d="M17.127 10.868c1.105 0 2-0.895 2-2s-0.895-2-2-2c-1.105 0-2 0.895-2 2s0.895 2 2 2z"></path>
<path fill="#55525b" style="fill: var(--color13, #55525b)" d="M27.927 29.268l-8.8-11.733v-8.417c0-0.552-0.448-1-1-1s-1 0.448-1 1v8.417l-8.8 11.733c-0.332 0.442-0.242 1.069 0.2 1.4 0.18 0.136 0.39 0.2 0.599 0.2 0.304 0 0.604-0.138 0.801-0.4l7.2-9.6v9c0 0.552 0.448 1 1 1s1-0.448 1-1v-9l7.2 9.6c0.197 0.262 0.497 0.4 0.801 0.4 0.209 0 0.419-0.065 0.6-0.2 0.44-0.331 0.53-0.958 0.199-1.4z"></path>
<path fill="#5c76b2" style="fill: var(--color4, #5c76b2)" d="M15.126 23.868c-0.417 0-0.839-0.131-1.199-0.4-0.884-0.663-1.062-1.916-0.4-2.8l3-4c0.664-0.883 1.916-1.062 2.8-0.4 0.884 0.663 1.063 1.916 0.4 2.8l-3 4c-0.393 0.524-0.993 0.8-1.601 0.8z"></path>
<path fill="#5c76b2" style="fill: var(--color4, #5c76b2)" d="M21.129 23.869c-0.608 0-1.208-0.276-1.601-0.8l-3-4c-0.663-0.884-0.483-2.137 0.4-2.801 0.883-0.662 2.136-0.485 2.8 0.4l3 4c0.663 0.884 0.483 2.137-0.4 2.801-0.36 0.27-0.781 0.4-1.199 0.4z"></path>
<path fill="#f68820" style="fill: var(--color5, #f68820)" d="M27.466 5.998l-1.969-0.348c-1.632-0.287-3.188 0.802-3.476 2.434s0.802 3.188 2.433 3.476l1.97 0.348c1.631 0.288 3.188-0.802 3.476-2.433s-0.802-3.188-2.434-3.476z"></path>
<path fill="#fbbe18" style="fill: var(--color7, #fbbe18)" d="M24.975 11.604c1.657 0 3-1.343 3-3s-1.343-3-3-3c-1.657 0-3 1.343-3 3s1.343 3 3 3z"></path>
<path fill="#6fa4d8" style="fill: var(--color3, #6fa4d8)" d="M24.627 10.575l-6.893-1.215 0.694-3.939 6.893 1.215c1.088 0.192 1.814 1.229 1.623 2.317s-1.229 1.813-2.317 1.622z"></path>
<path fill="#5c76b2" style="fill: var(--color4, #5c76b2)" d="M17.734 9.358l6.893 1.215c1.088 0.192 2.125-0.534 2.317-1.622l-8.863-1.563-0.348 1.969z"></path>
<path fill="#6fa4d8" style="fill: var(--color3, #6fa4d8)" d="M15.59 9.996l-6.893-1.216 1.042-5.909 6.893 1.216c1.632 0.287 2.721 1.844 2.434 3.476s-1.843 2.721-3.476 2.433z"></path>
<path fill="#5c76b2" style="fill: var(--color4, #5c76b2)" d="M8.697 8.781l6.893 1.216c1.631 0.288 3.188-0.802 3.476-2.433l-9.848-1.736-0.521 2.954z"></path>
<path fill="#f68820" style="fill: var(--color5, #f68820)" d="M8.117 0.555l-1.969-0.347c-2.72-0.479-5.313 1.337-5.793 4.056s1.337 5.312 4.056 5.792l1.97 0.348c2.719 0.48 5.313-1.336 5.792-4.056s-1.336-5.313-4.056-5.792z"></path>
<path fill="#fbbe18" style="fill: var(--color7, #fbbe18)" d="M5.279 10.132c2.761 0 5-2.239 5-5s-2.239-5-5-5c-2.761 0-5 2.239-5 5s2.239 5 5 5z"></path>
<path fill="#55525b" style="fill: var(--color13, #55525b)" d="M5.279 9.132c2.209 0 4-1.791 4-4s-1.791-4-4-4c-2.209 0-4 1.791-4 4s1.791 4 4 4z"></path>
<path fill="#b3b4b6" style="fill: var(--color11, #b3b4b6)" d="M4.778 1.162c-1.306 0.165-2.456 0.97-3.057 2.14 0.188 0.74 0.788 1.34 1.589 1.482 1.088 0.192 2.125-0.534 2.317-1.623 0.141-0.8-0.218-1.571-0.849-2z"></path>
<path fill="#fbbe18" style="fill: var(--color7, #fbbe18)" d="M19.127 10.868c1.105 0 2-0.895 2-2s-0.895-2-2-2c-1.105 0-2 0.895-2 2s0.895 2 2 2z"></path>
<path fill="#55525b" style="fill: var(--color13, #55525b)" d="M19.127 9.868c0.552 0 1-0.448 1-1s-0.448-1-1-1c-0.552 0-1 0.448-1 1s0.448 1 1 1z"></path>
<path fill="#f68820" style="fill: var(--color5, #f68820)" d="M9.127 31.868c1.105 0 2-0.895 2-2s-0.895-2-2-2c-1.105 0-2 0.895-2 2s0.895 2 2 2z"></path>
<path fill="#f68820" style="fill: var(--color5, #f68820)" d="M27.127 31.868c1.105 0 2-0.895 2-2s-0.895-2-2-2c-1.105 0-2 0.895-2 2s0.895 2 2 2z"></path>
<path fill="#f68820" style="fill: var(--color5, #f68820)" d="M18.127 31.868c1.105 0 2-0.895 2-2s-0.895-2-2-2c-1.105 0-2 0.895-2 2s0.895 2 2 2z"></path>
<path fill="#f68820" style="fill: var(--color5, #f68820)" d="M18.127 23.868c-1.104 0-2-0.895-2-2v-4c0-1.104 0.896-2 2-2s2 0.896 2 2v4c0 1.105-0.895 2-2 2z"></path>
<path fill="#6fa4d8" style="fill: var(--color3, #6fa4d8)" d="M18.127 23.868c-1.104 0-2-0.895-2-2v-4c0-1.104 0.896-2 2-2s2 0.896 2 2v4c0 1.105-0.895 2-2 2z"></path>
</symbol>
<symbol id="icon-comp" viewBox="0 0 31 32">
<title>comp</title>
<path fill="#353744" style="fill: var(--color10, #353744)" d="M31.269 24.308h-29.077v-16.615c0-1.147 0.93-2.077 2.077-2.077h24.923c1.147 0 2.077 0.93 2.077 2.077v16.615z"></path>
<path fill="#808080" style="fill: var(--color14, #808080)" d="M31.269 24.308h-29.077v1.038c0 1.147 0.93 2.077 2.077 2.077h24.923c1.147 0 2.077-0.93 2.077-2.077v-1.038z"></path>
<path fill="#55525b" style="fill: var(--color13, #55525b)" d="M29.192 24.308h-27v-16.615c0-1.147 0.93-2.077 2.077-2.077h22.846c1.147 0 2.077 0.93 2.077 2.077v16.615z"></path>
<path fill="#dbdee3" style="fill: var(--color12, #dbdee3)" d="M29.192 24.308h-27v1.038c0 1.147 0.93 2.077 2.077 2.077h22.846c1.147 0 2.077-0.93 2.077-2.077v-1.038z"></path>
<path fill="#fbbe18" style="fill: var(--color7, #fbbe18)" d="M26.337 7.692h-21.288c-0.43 0-0.779 0.349-0.779 0.779v12.981c0 0.43 0.349 0.779 0.779 0.779h21.288c0.43 0 0.779-0.349 0.779-0.779v-12.981c0-0.43-0.349-0.779-0.779-0.779z"></path>
<path fill="#f68820" style="fill: var(--color5, #f68820)" d="M7.385 11.846h11.423c0.574 0 1.038-0.465 1.038-1.038s-0.465-1.038-1.038-1.038h-11.423c-0.574 0-1.038 0.465-1.038 1.038s0.465 1.038 1.038 1.038z"></path>
<path fill="#f68820" style="fill: var(--color5, #f68820)" d="M7.385 16h11.423c0.574 0 1.038-0.465 1.038-1.038s-0.465-1.038-1.038-1.038h-11.423c-0.574 0-1.038 0.465-1.038 1.038s0.465 1.038 1.038 1.038z"></path>
<path fill="#f68820" style="fill: var(--color5, #f68820)" d="M7.385 20.154h11.423c0.574 0 1.038-0.465 1.038-1.038s-0.465-1.038-1.038-1.038h-11.423c-0.574 0-1.038 0.465-1.038 1.038s0.465 1.038 1.038 1.038z"></path>
<path fill="#808080" style="fill: var(--color14, #808080)" d="M20.625 29.5h-2.077v-2.077h2.077v2.077z"></path>
<path fill="#b3b4b6" style="fill: var(--color11, #b3b4b6)" d="M13.615 27.423h4.933v2.077h-4.933v-2.077z"></path>
<path fill="#dbdee3" style="fill: var(--color12, #dbdee3)" d="M22.702 29.5h-12.981c-1.147 0-2.077 0.93-2.077 2.077h17.135c0-1.147-0.93-2.077-2.077-2.077z"></path>
<path fill="#808080" style="fill: var(--color14, #808080)" d="M22.702 29.5h-2.077c-1.147 0-2.077 0.93-2.077 2.077h6.231c0-1.147-0.93-2.077-2.077-2.077z"></path>
<path fill="#5c76b2" style="fill: var(--color4, #5c76b2)" d="M7.904 0.423h-1.558c-3.441 0-6.231 2.79-6.231 6.231s2.79 6.231 6.231 6.231h1.558c3.441 0 6.231-2.79 6.231-6.231s-2.79-6.231-6.231-6.231z"></path>
<path fill="#6fa4d8" style="fill: var(--color3, #6fa4d8)" d="M6.346 12.885c3.441 0 6.231-2.79 6.231-6.231s-2.79-6.231-6.231-6.231c-3.441 0-6.231 2.79-6.231 6.231s2.79 6.231 6.231 6.231z"></path>
<path fill="#55525b" style="fill: var(--color13, #55525b)" d="M6.346 11.846c2.868 0 5.192-2.325 5.192-5.192s-2.325-5.192-5.192-5.192c-2.868 0-5.192 2.325-5.192 5.192s2.325 5.192 5.192 5.192z"></path>
<path fill="#6fa4d8" style="fill: var(--color3, #6fa4d8)" d="M6.346 6.913c-0.143 0-0.26-0.116-0.26-0.26v-4.154c0-0.143 0.116-0.26 0.26-0.26s0.26 0.116 0.26 0.26v4.154c0 0.143-0.116 0.26-0.26 0.26z"></path>
<path fill="#6fa4d8" style="fill: var(--color3, #6fa4d8)" d="M4.143 9.116c-0.066 0-0.133-0.025-0.184-0.076-0.101-0.101-0.101-0.266 0-0.367l2.203-2.203c0.101-0.101 0.266-0.101 0.367 0s0.101 0.266 0 0.367l-2.203 2.203c-0.050 0.050-0.117 0.076-0.183 0.076z"></path>
<path fill="#f68820" style="fill: var(--color5, #f68820)" d="M6.346 7.692c0.574 0 1.038-0.465 1.038-1.038s-0.465-1.038-1.038-1.038c-0.574 0-1.038 0.465-1.038 1.038s0.465 1.038 1.038 1.038z"></path>
<path fill="#dbdee3" style="fill: var(--color12, #dbdee3)" d="M6.346 7.173c0.287 0 0.519-0.232 0.519-0.519s-0.232-0.519-0.519-0.519c-0.287 0-0.519 0.232-0.519 0.519s0.232 0.519 0.519 0.519z"></path>
<path fill="#f68820" style="fill: var(--color5, #f68820)" d="M2.712 6.913h-0.519c-0.143 0-0.26-0.116-0.26-0.26s0.116-0.26 0.26-0.26h0.519c0.143 0 0.26 0.116 0.26 0.26s-0.116 0.26-0.26 0.26z"></path>
<path fill="#f68820" style="fill: var(--color5, #f68820)" d="M6.346 11.067c-0.143 0-0.26-0.116-0.26-0.26v-0.519c0-0.143 0.116-0.26 0.26-0.26s0.26 0.116 0.26 0.26v0.519c0 0.143-0.116 0.26-0.26 0.26z"></path>
<path fill="#f68820" style="fill: var(--color5, #f68820)" d="M10.5 6.913h-0.519c-0.143 0-0.26-0.116-0.26-0.26s0.116-0.26 0.26-0.26h0.519c0.143 0 0.26 0.116 0.26 0.26s-0.116 0.26-0.26 0.26z"></path>
<path fill="#f68820" style="fill: var(--color5, #f68820)" d="M23.481 20.154c-0.574 0-1.038-0.465-1.038-1.038s0.465-1.038 1.038-1.038c0.574 0 1.039 0.465 1.039 1.038s-0.465 1.038-1.039 1.038z"></path>
<path fill="#5c76b2" style="fill: var(--color4, #5c76b2)" d="M23.091 10.159l0.389 0.389 1.168-1.168c0.215-0.215 0.564-0.215 0.779 0s0.215 0.564 0 0.779l-1.558 1.558c-0.215 0.215-0.564 0.215-0.779 0l-0.779-0.779c-0.215-0.215-0.215-0.564 0-0.779s0.564-0.215 0.779 0z"></path>
<path fill="#5c76b2" style="fill: var(--color4, #5c76b2)" d="M23.091 14.313l0.389 0.389 1.168-1.168c0.215-0.215 0.564-0.215 0.779 0s0.215 0.564 0 0.779l-1.558 1.558c-0.215 0.215-0.564 0.215-0.779 0l-0.779-0.779c-0.215-0.215-0.215-0.564 0-0.779s0.564-0.215 0.779 0z"></path>
</symbol>
<symbol id="icon-no-star" viewBox="0 0 32 32">
<title>no-star</title>
<path fill="#f3cd03" style="fill: var(--color15, #f3cd03)" d="M7.999 19.421l-2.187 9.469c-0.068 0.287-0.047 0.587 0.058 0.862s0.292 0.512 0.534 0.679 0.53 0.258 0.824 0.26c0.295 0.002 0.583-0.085 0.827-0.25l7.991-5.327 7.991 5.327c0.25 0.166 0.545 0.252 0.845 0.245s0.591-0.105 0.833-0.282c0.242-0.177 0.425-0.424 0.523-0.707s0.107-0.59 0.025-0.879l-2.684-9.392 6.657-5.991c0.213-0.192 0.365-0.442 0.438-0.72s0.062-0.57-0.030-0.842c-0.092-0.272-0.262-0.51-0.488-0.687s-0.5-0.282-0.785-0.305l-8.367-0.666-3.62-8.014c-0.116-0.258-0.303-0.477-0.54-0.631s-0.514-0.236-0.797-0.236-0.559 0.082-0.797 0.236c-0.237 0.154-0.425 0.373-0.54 0.631l-3.62 8.014-8.367 0.665c-0.281 0.022-0.55 0.125-0.774 0.296s-0.394 0.403-0.49 0.668c-0.096 0.265-0.113 0.552-0.050 0.827s0.204 0.526 0.406 0.723l6.184 6.027zM12.186 13.073c0.262-0.021 0.514-0.111 0.728-0.263s0.385-0.358 0.493-0.597l2.64-5.842 2.64 5.842c0.108 0.24 0.278 0.446 0.493 0.597s0.466 0.242 0.728 0.263l5.829 0.462-4.8 4.32c-0.417 0.376-0.583 0.954-0.43 1.494l1.839 6.435-5.483-3.656c-0.241-0.161-0.524-0.248-0.814-0.248s-0.573 0.086-0.814 0.248l-5.729 3.82 1.541-6.672c0.056-0.245 0.049-0.501-0.022-0.743s-0.203-0.461-0.383-0.637l-4.458-4.347 6.002-0.478z"></path>
</symbol>
<symbol id="icon-click" viewBox="0 0 47 32">
<title>click</title>
<path d="M47.406 0.594c0.188 0.188 0.338 0.411 0.44 0.657s0.154 0.509 0.154 0.776c0 0.266-0.052 0.53-0.154 0.776s-0.252 0.469-0.44 0.657l-28.328 28.328c-0.188 0.189-0.411 0.338-0.657 0.44s-0.509 0.154-0.776 0.154-0.53-0.052-0.776-0.154c-0.246-0.102-0.469-0.251-0.657-0.44l-14.164-14.164c-0.38-0.38-0.593-0.895-0.593-1.433s0.213-1.053 0.593-1.433c0.38-0.38 0.895-0.593 1.433-0.593s1.053 0.213 1.433 0.593l12.732 12.736 26.896-26.9c0.188-0.188 0.411-0.338 0.657-0.44s0.509-0.155 0.776-0.155c0.266 0 0.53 0.052 0.776 0.155s0.469 0.252 0.657 0.44z"></path>
</symbol>
</defs>
</svg>
